<svg width="130" height="49" viewBox="0 0 130 49" fill="none" xmlns="http://www.w3.org/2000/svg">
<g clip-path="url(#clip0_694_2055)">
<path d="M32.2843 32.416C32.8468 32.4588 33.4105 32.3502 33.9175 32.1015C34.4245 31.8528 34.8567 31.4729 35.1696 31.0007H35.3047L35.4636 32.0562H38.643L38.3966 29.6575V21.1262C37.0104 20.5829 35.5434 20.2775 34.0568 20.2227C29.9872 20.2227 28.0001 22.8772 28.0001 26.843C27.9921 29.6495 28.8585 32.416 32.2843 32.416ZM33.6514 22.9092C33.9996 22.9056 34.346 22.9597 34.6767 23.0691V28.5061C34.6666 28.6753 34.6234 28.8408 34.5496 28.9931C34.4757 29.1454 34.3727 29.2815 34.2464 29.3937C34.1201 29.5059 33.9731 29.5919 33.8137 29.6467C33.6543 29.7016 33.4857 29.7243 33.3176 29.7134C32.022 29.7134 31.7279 28.2742 31.7279 26.5152C31.704 24.6282 32.1968 22.9092 33.6514 22.9092Z" fill="white"/>
<path d="M43.9615 32.3759C44.5271 32.3966 45.0896 32.2828 45.6033 32.0439C46.1171 31.805 46.5676 31.4476 46.9183 31.0007H46.9978L47.1647 32.0801H50.3441L50.0977 29.8973V20.5664H46.3619V27.9863C46.3658 28.0182 46.3658 28.0504 46.3619 28.0823C46.3661 28.2667 46.334 28.4501 46.2675 28.622C46.201 28.794 46.1013 28.9509 45.9743 29.0839C45.8472 29.217 45.6953 29.3234 45.5272 29.3971C45.3591 29.4708 45.1781 29.5104 44.9948 29.5135C44.0568 29.5135 43.9456 28.8179 43.9456 27.8104V20.5664H40.1621V28.3062C40.1621 31.0247 41.41 32.3759 43.9615 32.3759Z" fill="white"/>
<path d="M55.8097 32.4406C56.9207 32.4581 58.0169 32.1824 58.9891 31.6411L58.1942 29.2424C57.8268 29.4599 57.412 29.5834 56.9861 29.6022C56.1912 29.6022 55.6428 29.2904 55.6428 28.051V23.5095H58.4406V20.5591H55.6348V16.4414H51.8514V27.9631C51.8514 30.2098 52.0183 32.4406 55.8097 32.4406Z" fill="white"/>
<path d="M63.7991 32.4401C66.8831 32.4401 69.363 30.2813 69.363 26.0436C69.363 20.7585 65.9214 20.2148 64.133 20.2148C61.6928 20.2148 58.6485 21.678 58.6485 26.4034C58.6326 30.5052 60.6039 32.4401 63.7991 32.4401ZM63.9422 22.9094C65.0788 22.9094 65.4604 24.0767 65.4604 26.3715C65.4604 28.5783 65.0391 29.6816 63.9422 29.6816C62.6228 29.6816 62.4161 27.9066 62.4161 25.9717C62.4161 24.0367 62.9089 22.9094 63.9422 22.9094Z" fill="white"/>
<path d="M75.2775 32.4172C76.788 32.4662 78.2704 31.9983 79.4823 31.0899L78.1628 28.5473C77.4941 29.1139 76.6525 29.4328 75.7783 29.4508C74.284 29.4508 73.5448 28.2995 73.5448 26.3006C73.5448 24.3017 74.2363 23.1983 75.4683 23.1983C75.8814 23.2348 76.279 23.3737 76.6258 23.6025C76.9725 23.8313 77.2575 24.1429 77.4554 24.5095L79.7366 22.5506C79.2795 21.802 78.6316 21.1899 77.8601 20.778C77.0886 20.3661 76.2216 20.1692 75.3491 20.2079C72.6625 20.2079 69.7852 21.9909 69.7852 26.4445C69.817 30.3703 71.8915 32.4172 75.2775 32.4172Z" fill="white"/>
<path d="M83.7179 32.416C84.2804 32.4588 84.8441 32.3502 85.3512 32.1015C85.8582 31.8528 86.2903 31.4729 86.6032 31.0007H86.7383L86.8973 32.0562H90.0767L89.8303 29.6575V21.1262C88.4438 20.5838 86.977 20.2784 85.4904 20.2227C81.4129 20.2227 79.4258 22.8772 79.4258 26.843C79.4258 29.6495 80.3001 32.416 83.7179 32.416ZM85.093 22.9092C85.4412 22.9056 85.7876 22.9597 86.1184 23.0691V28.5061C86.1083 28.6753 86.065 28.8408 85.9912 28.9931C85.9173 29.1454 85.8143 29.2815 85.688 29.3937C85.5617 29.5059 85.4147 29.5919 85.2553 29.6467C85.0959 29.7016 84.9273 29.7243 84.7592 29.7134C83.4556 29.7134 83.1695 28.2742 83.1695 26.5152C83.1457 24.6282 83.6385 22.9092 85.093 22.9092Z" fill="white"/>
<path d="M102 25.8203C102 22.0623 100.275 20.2233 97.5091 20.2233C96.7599 20.2136 96.0208 20.3981 95.363 20.759V16.4414H91.6034V31.4891C93.0891 32.1228 94.6872 32.4465 96.3009 32.4406C99.9413 32.4406 102 30.2098 102 25.8203ZM95.355 23.9573C95.3589 23.9361 95.3589 23.9145 95.355 23.8933C95.3659 23.7502 95.4053 23.6108 95.4708 23.4833C95.5363 23.3558 95.6265 23.2428 95.7363 23.1511C95.846 23.0593 95.9729 22.9907 96.1095 22.9493C96.2461 22.9079 96.3896 22.8944 96.5314 22.9099C98.0098 22.9099 98.296 24.509 98.296 26.348C98.296 28.4908 97.9621 29.858 96.5076 29.858C96.1258 29.8564 95.7479 29.7804 95.3948 29.6342L95.355 23.9573Z" fill="white"/>
<path d="M0 0.441406V48.4414H130V0.441406H0ZM129.238 47.6807H0.761615V1.2021H129.238V47.6807Z" fill="white" stroke="white"/>
</g>
<defs>
<clipPath id="clip0_694_2055">
<rect width="130" height="48" fill="white" transform="translate(0 0.441406)"/>
</clipPath>
</defs>
</svg>
