<?xml version="1.0" encoding="UTF-8" standalone="no"?>
<svg
   width="1100.4377"
   height="1039.7277"
   viewBox="-75 -40 146.72503 138.63035"
   id="svg2"
   version="1.1"
   inkscape:version="1.1.1 (3bf5ae0d25, 2021-09-20)"
   sodipodi:docname="20221017081609!Flag_map_of_Pakistan.svg"
   xmlns:inkscape="http://www.inkscape.org/namespaces/inkscape"
   xmlns:sodipodi="http://sodipodi.sourceforge.net/DTD/sodipodi-0.dtd"
   xmlns="http://www.w3.org/2000/svg"
   xmlns:svg="http://www.w3.org/2000/svg"
   xmlns:rdf="http://www.w3.org/1999/02/22-rdf-syntax-ns#"
   xmlns:cc="http://creativecommons.org/ns#"
   xmlns:dc="http://purl.org/dc/elements/1.1/">
  <metadata
     id="metadata31">
    <rdf:RDF>
      <cc:Work
         rdf:about="">
        <dc:format>image/svg+xml</dc:format>
        <dc:type
           rdf:resource="http://purl.org/dc/dcmitype/StillImage" />
      </cc:Work>
    </rdf:RDF>
  </metadata>
  <defs
     id="defs29">
    <inkscape:perspective
       sodipodi:type="inkscape:persp3d"
       inkscape:vp_x="0 : 299.87528 : 1"
       inkscape:vp_y="0 : 1000 : 0"
       inkscape:vp_z="900 : 299.87528 : 1"
       inkscape:persp3d-origin="449.99999 : 199.87528 : 1"
       id="perspective33" />
    <inkscape:perspective
       id="perspective2847"
       inkscape:persp3d-origin="0.5 : 0.20861003 : 1"
       inkscape:vp_z="0.99999999 : 0.37527671 : 1"
       inkscape:vp_y="0 : 1000 : 0"
       inkscape:vp_x="0 : 0.37527671 : 1"
       sodipodi:type="inkscape:persp3d" />
    <inkscape:perspective
       id="perspective3724"
       inkscape:persp3d-origin="0.5 : 0.20861003 : 1"
       inkscape:vp_z="0.99999999 : 0.37527671 : 1"
       inkscape:vp_y="0 : 1000 : 0"
       inkscape:vp_x="0 : 0.37527671 : 1"
       sodipodi:type="inkscape:persp3d" />
    <inkscape:perspective
       id="perspective2835"
       inkscape:persp3d-origin="0.5 : 0.20861003 : 1"
       inkscape:vp_z="0.99999999 : 0.37527671 : 1"
       inkscape:vp_y="0 : 1000 : 0"
       inkscape:vp_x="0 : 0.37527671 : 1"
       sodipodi:type="inkscape:persp3d" />
    <inkscape:perspective
       id="perspective2848"
       inkscape:persp3d-origin="0.5 : 0.20861003 : 1"
       inkscape:vp_z="0.99999999 : 0.37527671 : 1"
       inkscape:vp_y="0 : 1000 : 0"
       inkscape:vp_x="0 : 0.37527671 : 1"
       sodipodi:type="inkscape:persp3d" />
    <inkscape:perspective
       id="perspective2861"
       inkscape:persp3d-origin="0.5 : 0.20861003 : 1"
       inkscape:vp_z="0.99999999 : 0.37527671 : 1"
       inkscape:vp_y="0 : 1000 : 0"
       inkscape:vp_x="0 : 0.37527671 : 1"
       sodipodi:type="inkscape:persp3d" />
    <inkscape:perspective
       id="perspective3609"
       inkscape:persp3d-origin="0.5 : 0.20861003 : 1"
       inkscape:vp_z="0.99999999 : 0.37527671 : 1"
       inkscape:vp_y="0 : 1000 : 0"
       inkscape:vp_x="0 : 0.37527671 : 1"
       sodipodi:type="inkscape:persp3d" />
    <inkscape:perspective
       id="perspective3622"
       inkscape:persp3d-origin="0.5 : 0.20861003 : 1"
       inkscape:vp_z="0.99999999 : 0.37527671 : 1"
       inkscape:vp_y="0 : 1000 : 0"
       inkscape:vp_x="0 : 0.37527671 : 1"
       sodipodi:type="inkscape:persp3d" />
    <inkscape:perspective
       id="perspective2841"
       inkscape:persp3d-origin="0.5 : 0.20861003 : 1"
       inkscape:vp_z="0.99999999 : 0.37527671 : 1"
       inkscape:vp_y="0 : 1000 : 0"
       inkscape:vp_x="0 : 0.37527671 : 1"
       sodipodi:type="inkscape:persp3d" />
    <clipPath
       clipPathUnits="userSpaceOnUse"
       id="clipPath1315">
      <path
         id="path1317"
         style="fill:#800080;stroke:none;stroke-width:0.0133333;stroke-miterlimit:4;stroke-dasharray:none"
         d="m 52.722661,-102.64484 -0.547945,0.18265 -0.542239,0.27397 -0.273973,0.27397 0.18265,0.27398 -0.273972,0.27397 -0.09133,-0.27397 -0.633562,-0.18265 h -0.09703 -0.456623 l -0.450911,0.27397 -0.365297,0.3653 -0.456621,0.27397 -0.359589,0.17694 -0.273973,0.3653 -0.456623,0.36529 -0.09133,-0.27397 h -0.547946 l -0.268266,0.0913 v 0.547946 0.359589 l -0.639268,0.182649 -0.547945,0.09133 -0.268267,-0.09133 -0.456621,-0.268265 -0.730591,-0.365296 h -0.456621 l -0.365297,-0.182649 h -0.81621 l -0.542239,0.09133 -0.821918,-0.273974 h -0.0053 c 0,0 -0.178085,0.274271 -0.542237,0.365299 -0.363684,0.0911 -0.359589,0.365296 -0.359589,0.365296 l -0.456621,-0.09133 -0.273973,-0.182649 -0.273972,-0.09133 h -0.821918 l -0.639269,0.17694 -0.998859,0.188356 H 36.067778 35.24586 34.789239 l -0.542237,0.359589 h -0.63927 -0.456621 l -0.365297,0.182649 -0.724885,0.182648 H 31.604308 31.06207 30.331477 l -0.730594,0.182648 -0.81621,0.09133 -0.365297,0.273973 -0.273972,0.365297 -0.456621,0.182648 -0.724886,0.09133 -0.456621,-0.09133 -0.542238,0.273972 -0.553653,0.268265 -0.633561,0.09133 -0.456621,0.09133 0.09133,0.273973 0.365295,0.273972 v 0.35959 h -0.182649 -0.365297 -0.365295 l -0.268266,0.279679 -0.456621,0.176941 v 0.273973 0.273972 l -0.273973,0.09133 -0.365297,0.182648 -0.273972,0.365297 -0.456621,0.182648 -0.176941,0.268265 -0.730593,0.273972 h -0.633562 -0.182647 v 3.65e-4 l -0.09133,0.273616 v 3.65e-4 l 0.273972,0.273972 0.08562,0.450557 v 0.280037 l -0.176941,0.176585 -0.273972,-0.08562 -0.273973,-0.09133 -0.09169,-0.27968 -0.456621,-0.359589 -0.542237,-0.09133 -0.547945,0.09133 v 0.359589 l -0.09133,0.371005 -0.182647,0.182648 -0.365298,0.176941 0.09133,0.182648 h 3.66e-4 l 0.09133,0.09133 v 3.65e-4 l 0.182649,0.182292 v 3.65e-4 l -0.09168,0.273617 h -0.456621 l -0.268267,0.182648 -0.273973,0.268264 v 3.65e-4 l -0.182646,0.182292 v 3.66e-4 l -0.456621,0.547589 -0.09133,0.182647 -0.182646,0.18265 H 15.39962 15.131353 v 3.65e-4 l -0.273972,0.456264 v 3.66e-4 l -0.09704,0.456196 -0.268265,0.08562 -0.456619,0.273973 -0.09133,0.182648 v 3.65e-4 l -0.09133,0.273615 v 3.66e-4 l -0.273972,0.364939 -0.176941,0.09168 v 0.359589 l 0.176941,0.09667 0.273972,0.268622 0.365297,0.456265 v 3.65e-4 l 0.639269,0.18229 0.359589,0.183006 0.273973,0.182649 0.182648,0.182291 v 0.182649 3.65e-4 0.273617 3.65e-4 l 0.182649,0.176584 h 0.273972 l 0.273973,0.273972 0.268265,0.547945 v 0.273973 l 0.273972,0.183005 -0.08562,0.273616 v 3.65e-4 l 0.182648,0.267909 v 3.65e-4 l 0.268265,0.182293 0.182649,0.09168 v 0.182648 0.365297 0.273972 l -0.182649,0.273973 -0.09133,0.273973 0.09133,0.268264 0.273973,0.09133 0.09133,0.182649 0.273972,0.09133 0.273973,0.182647 0.17694,0.365298 v 0.182647 l -0.08562,0.176942 h -0.273973 l 0.182649,0.182647 0.09133,0.273973 0.08562,0.365298 0.273972,0.182647 0.279679,0.365298 v 0.273973 l -0.279679,0.450913 -0.273972,0.188356 -0.268267,0.08562 -0.182648,0.182648 h -0.273973 l -0.09133,0.182647 -0.09133,0.365298 0.456621,0.365297 0.273972,0.359589 0.359589,0.273973 0.09133,0.182648 h 0.365295 v 0.182647 0.365298 l -0.182647,0.542236 -0.35959,0.279682 -0.365297,0.08562 -0.273973,0.182646 -0.273972,0.639271 0.09133,0.273973 0.182647,0.273973 -0.365295,0.268264 -0.09133,0.182647 -0.02853,0.09703 -0.15411,0.450912 -0.547945,0.273972 -0.724886,0.359589 -0.639271,0.18265 -0.273973,0.547946 -0.176938,0.456621 v 0.365296 l -0.273973,0.359589 -0.365297,0.182649 -0.365298,0.365297 -0.633562,0.547945 -0.371003,0.182648 -0.176942,0.182647 v 0.547945 0.542239 0.365295 l -0.273973,0.273973 -0.456619,-0.09703 -0.450915,0.09703 v 0.450915 0.456619 l -0.09667,0.273973 0.456621,0.273972 0.365297,0.273973 0.273972,0.456623 0.359589,0.268264 0.371005,0.09133 0.182648,0.09133 v 0.456621 0.365297 l -0.182648,0.08562 -0.182649,0.371005 -0.09169,0.182648 v 0.176941 l 0.09169,0.273972 0.268265,0.09132 0.09667,0.182649 -0.182648,0.182648 0.182648,0.450913 -0.27968,0.371005 h -0.176941 l -0.365296,0.268265 v 0.365297 l 0.268265,0.547945 -0.359589,0.17694 h -0.456621 l -0.365297,0.182649 -0.359589,0.371004 h -0.273617 -3.65e-4 l -0.273616,-0.09703 h -3.66e-4 -0.273972 v 0.365297 l -0.09133,0.273973 H 9.8516364 9.6632802 L 9.48063,-57.58162 9.121041,-57.398972 8.5730958,-57.58162 H 8.0251506 L 7.391589,-57.4903 6.9349699,-57.39862 H 6.3870247 l -0.4509132,0.09132 h -0.456621 l -0.6392694,-0.09132 -0.1826484,-0.273972 -0.6335616,0.09132 -0.456621,-0.182649 H 3.2991435 l -0.4566191,-0.182681 -0.456621,-0.182648 -0.456621,-0.182649 -0.6392694,-0.09132 H 0.74777563 l -0.45662099,-0.182648 h -0.81621 l -0.54794514,0.182648 -0.1826484,0.09132 0.1826484,0.365297 v 0.182649 l -0.3652968,0.273972 -0.1826484,0.182649 0.091326,0.273972 0.2739726,0.273973 0.1826484,0.268265 0.0916803,0.188356 0.0856164,0.359589 0.27397259,0.365296 0.0966758,0.273973 0.26826483,0.182648 v 0.359589 l 0.18264839,0.09132 0.27397259,0.182648 0.35958903,0.09132 0.73059357,0.182649 0.3652968,-0.09132 0.1826484,0.456621 v 0.273973 l 0.09168,0.268265 0.1826484,0.09132 0.2739726,0.27968 -0.09168,0.450914 -0.091326,0.730593 -0.1826484,0.450913 0.1826484,0.182649 0.1826502,0.182648 v 0.365297 h 0.3595872 l 0.3652968,0.365297 0.1883562,0.268265 0.450915,0.456621 0.091324,0.365296 v 0.63927 l -0.456621,0.09132 -0.1826484,0.273973 -0.5422374,0.633561 -0.3652968,0.09133 -0.2739726,0.182649 -0.1826483,0.273972 -0.1826484,0.273973 H 1.290013 l -0.2739725,-0.09703 -0.26826487,0.09703 v 0.273971 l -0.27397259,0.359589 -0.0913242,0.182648 H 0.01718205 -0.16546634 l -0.35958902,0.273973 -0.45662099,0.273972 -0.45662095,0.182649 h -0.2739726 l -0.2739726,-0.273973 -0.3652968,-0.273973 h -0.1826484 l -0.359589,0.182649 -0.3652968,0.456621 -0.2739726,-0.09133 -0.81621,-0.09132 -0.7305936,0.182648 -0.2739726,0.273972 -0.456621,0.450914 -0.091324,0.365297 v 0.45662 l 0.091324,0.542238 0.091326,0.273973 -0.091326,0.45662 -0.091324,0.09133 -0.2739725,0.182648 -0.1769407,0.365297 -0.1826484,0.359589 -0.4566209,0.273972 -0.1826484,0.182649 0.1826484,0.365297 0.2739725,0.182648 0.1826484,0.182648 0.085617,0.268265 v 0.279681 l 0.097032,0.359589 -0.2739726,0.547945 -0.5479451,0.639269 -0.1826484,0.456621 h -0.547946 l -0.2682648,0.182649 -0.3652968,0.17694 -0.091324,0.547945 -0.1826484,0.547946 v 0.633561 l 0.2739726,0.365297 0.1769406,0.365297 0.0025,0.0093 c -7.306e-4,5.48e-4 -0.00164,9.14e-4 -0.0025,0.0015 l 0.097032,0.353882 v 7.3e-4 0.267553 7.3e-4 l -0.097032,0.370291 v 7.3e-4 l -0.085616,0.450199 v 3.66e-4 3.65e-4 l 0.1826484,0.364941 v 3.65e-4 l -0.1826484,0.455907 -0.091324,0.450915 v 7.3e-4 0.187644 7.31e-4 l 0.091324,0.358877 v 7.3e-4 l 0.1826484,0.365299 v 0.455907 7.3e-4 l 0.1826484,0.63285 v 7.3e-4 l 0.2739725,0.456621 v 0.461615 7.3e-4 0.07919 l -0.4566209,0.182647 -0.2739726,0.456621 -0.3652968,0.18265 -0.2739726,0.182646 v 0.273973 7.3e-4 0.364585 l -0.456621,0.09133 -0.1826484,0.359589 -0.1769406,0.456623 -0.4566206,0.365295 -0.273973,0.18265 -0.182648,0.268263 -0.268265,0.273972 -0.553653,0.279683 h -0.268265 l -0.547945,0.08562 -0.639269,0.365295 -0.542238,0.273973 h -0.365296 l -0.273973,-0.639268 -0.09132,-0.268267 -0.359589,-0.182648 -0.365297,-0.547945 v -0.456619 l -0.365297,-0.365299 -0.547945,-0.09133 -0.359589,-0.08562 v -0.182649 l -0.251141,-0.188356 c -5.48e-4,7.31e-4 -0.0011,0.0015 -0.0018,0.0022 l -0.118078,-0.08704 -0.35959,-0.182649 -0.547945,0.365297 -0.633561,0.09133 v 0.08562 l 0.359589,0.182648 0.273972,0.09133 h 0.182649 l 0.456621,0.09703 0.182292,0.267907 -0.182292,0.273616 h -0.365303 l -0.182648,-0.06278 c -5.48e-4,7.31e-4 -0.0013,0.0015 -0.0018,0.0022 l -0.363513,-0.121287 -0.456621,-0.09133 -0.542237,-0.182648 -0.365297,-0.08562 h -0.907534 l -0.273973,-0.273973 -0.365297,-0.182648 -0.182648,-0.371004 h -0.547945 l -0.273973,0.188356 -0.182648,0.365296 -0.359589,0.450914 -0.456623,0.273972 -0.09133,0.273973 0.09133,0.182648 v 0.273973 h -0.273973 -0.268263 l -0.182648,0.17694 -0.273973,0.365297 -0.456622,0.188356 h -0.456621 -0.542154 l -0.547945,0.542238 -0.182646,0.365297 -0.547946,0.365296 -0.547945,0.182649 h -0.542239 l -0.547945,-0.182649 h -0.639268 l -0.08562,0.08562 0.273972,0.273972 0.08562,0.273973 0.182646,0.182648 -0.09133,0.456621 v 0.182649 l 0.273972,0.182648 0.365297,0.182649 h 0.268276 0.553653 l 0.542237,-0.09731 0.273973,0.273972 0.09133,0.456621 -0.273972,0.365297 h -0.633562 l -0.365297,0.365295 -0.730593,0.542239 h -0.639269 l -0.35959,0.182649 -0.547943,0.182646 -0.907534,0.18265 -0.913242,0.09133 -0.547945,0.09133 h -0.450915 l -0.456619,-0.182649 -0.365299,-0.09133 -0.639268,-0.182649 h -0.542239 -0.547945 l -0.365295,-0.17694 v -0.371124 l 0.182648,-0.268265 -0.273972,-0.182648 -0.450915,-0.09133 -0.821918,0.182647 -0.91324,0.359589 -0.359589,0.547945 -0.365297,0.273973 -0.365299,0.09133 -0.542237,0.09133 -0.27968,0.450915 v 0.553651 l -0.176939,0.724886 -0.456623,0.273973 -0.365295,0.456621 -0.273972,0.359589 -0.633562,0.456622 -0.913244,0.182649 -0.907534,0.182646 -0.639269,1.729452 -0.81621,3.276258 v 0.273972 l 0.359589,0.633562 0.365298,0.3710027 v 0.3595891 l 0.09133,0.4566228 -0.182648,0.4566209 -0.182647,0.3595891 -0.09133,2.0947487 -0.273972,0.2739726 -0.273973,0.365295 -0.182648,0.5479452 -0.176941,0.5422392 -0.09133,0.5479452 0.450914,0.456621 0.913241,0.9075342 -0.09168,0.6392675 -1.181506,0.99886026 -14.925443,3.91552314 -0.553654,-0.091328 h -3.66e-4 l -0.21654,-0.05137 -0.216537,-0.05137 V 3.6679354 L -62.790691,3.314056 -64.428819,3.1314076 h -1.455479 l -1.552511,0.097026 -0.816212,0.1769424 h -0.456619 l -0.998861,0.365295 -0.821917,0.1826502 -0.45662,0.4566192 -0.450915,0.5479451 -0.365295,0.5422375 h -0.456622 l -0.816209,-0.456621 -1.369863,-0.4566192 -1.546805,-0.450915 -2.454336,-0.5479452 -13.29338,0.7305936 -0.633562,-0.091684 -19.120995,-7.5570919 h -3.5e-4 v 3.653e-4 0.1826484 l 4.92009,6.7351614 h 0.35959 l 0.18265,0.1826465 v 0.2739726 l -0.0913,0.5422375 -0.18265,0.2739725 v 0.2739726 l 0.3653,0.5479452 0.27397,0.1826502 0.0913,0.2739726 0.0913,0.3595891 v 0.3710027 l 0.18265,0.1769424 0.26826,0.1826466 0.18265,0.1826484 v 0.2739726 l 0.18836,0.1826502 h 0.17694 l 0.0913,0.2739726 -0.26827,0.359589 -0.097,0.2796785 0.45662,0.3595891 0.0917,0.2739726 0.45662,1.4554801 0.81621,1.364157 0.63927,0.821917 0.54795,0.633562 0.81621,1.09589 0.91324,0.907535 0.639268,0.456621 h 0.450913 l 0.365296,0.365295 0.63927,0.18265 0.907534,0.273972 0.547946,0.09133 0.998857,0.542239 1.09589,0.182647 0.633562,0.456621 0.456621,0.456623 0.365298,0.182646 0.17694,0.542238 0.547946,0.730595 0.547945,0.542236 0.730593,-0.182647 1.45548,-0.08562 0.182646,0.359589 v 0.730592 l -0.09703,0.547945 -0.08562,0.633561 -0.273972,0.639272 v 0.456619 0.639271 l 0.09133,0.907534 0.268264,1.181507 0.273973,0.821918 v 0.907534 l -0.08562,0.821918 v 0.91324 0.633561 0.821918 l -0.09133,0.450915 -0.456621,1.004565 -0.365297,0.273972 v 0.08562 l 0.182648,0.365298 0.09133,0.273973 -0.182648,0.273972 -0.365297,0.182647 0.182648,0.182648 0.273973,0.176941 0.365297,0.182648 h 0.365296 l 0.542238,0.188357 0.365297,0.08562 h 0.365296 0.273973 l 0.633562,-0.182648 0.730593,-0.176941 h 0.456621 0.359589 l 0.279681,-0.09703 h 0.359589 l 0.273972,0.09703 0.273973,0.359589 h 0.182648 l 0.63927,0.547945 0.08562,0.547945 v 0.456623 h -0.273973 l -0.268266,0.273973 -0.365295,0.542235 v 0.456621 1.364163 l 0.09133,0.182648 0.273972,0.268267 -0.182648,0.371003 -0.456621,0.182648 -0.365297,0.268267 v 0.365295 l -0.268265,0.998858 -0.182648,1.278539 -0.188356,0.273972 -0.724886,-0.09133 h -0.273973 l -0.542237,-0.09133 -0.456621,-0.188356 h -0.547945 -0.821918 -0.633562 l -0.730593,-0.08562 h -0.547945 l -0.268265,0.273973 -0.365297,0.182648 h -0.273973 l -0.456621,0.18265 -0.273972,0.08562 -0.359589,0.188356 -0.365297,-0.09703 h -0.45662 l -0.547946,0.09703 h -0.359589 l -0.547945,0.08562 -0.09133,0.273973 h -0.542237 l -0.273972,0.182647 h -0.365297 l -0.273973,0.365298 v 0.450912 l -0.365296,0.456622 -0.182649,0.182647 v 0.182648 l 0.09133,0.273973 v 0.18265 l -0.182647,0.182647 -0.359589,-0.09133 -0.821918,-0.365297 h -0.456621 l -0.09133,0.273973 -0.09133,0.273972 -0.182648,0.268265 -0.633562,0.188356 -0.639271,0.268265 -2.00343,0.547945 -0.36529,0.456621 -0.35959,1.638128 -0.3653,1.9121 -0.27397,1.364156 v 0.547945 h -0.63927 l -0.54224,0.08562 -0.0913,0.371005 v 0.633561 l 0.0913,0.365297 0.18265,0.182649 v 0.273972 l -0.27397,0.273973 -0.3653,0.17694 v 0.273973 l 0.0913,0.273973 -0.18265,0.182648 v 0.365297 l -0.18265,0.639269 -0.0913,1.541096 -0.18265,1.187215 -0.54224,0.998858 -0.18265,0.365297 0.18265,0.182648 h 0.27397 0.45092 l 0.45662,0.09133 0.18265,0.09133 0.36529,0.182648 0.27397,-0.09133 h 0.26827 v 0.176941 l -0.18265,0.371005 -0.35959,0.359589 -0.27397,0.456622 -0.0913,0.365295 0.0913,0.273973 0.17694,0.18265 0.63927,-0.09703 0.54794,0.09703 0.26827,-0.18265 v -0.273973 l 0.371,-0.365295 0.45663,-0.18265 0.17693,-0.09133 h 0.54795 l 0.99886,0.273973 0.63927,0.182646 0.0913,-0.182646 -0.0913,-0.09133 -0.27397,-0.273972 -0.0913,-0.365297 0.0913,-0.359589 0.54794,-0.182649 0.359594,-0.09168 0.821917,-0.09133 0.907533,0.365297 0.279681,0.359589 0.09133,0.273972 -0.371006,0.365297 -0.176939,0.182648 -0.09133,0.09133 0.450913,0.182649 0.639269,0.09168 h 0.456622 v -0.188713 l -0.456622,-0.176584 -0.182648,-0.273973 v -0.182648 l 0.456621,-0.547945 0.913242,-0.176941 0.450914,-0.09703 0.182648,-0.176943 h -0.182648 l 0.09133,-0.09133 0.456621,-0.09169 h 1.090183 l 2.186072,0.09169 1.9121,0.365295 0.998858,0.273973 h 0.639272 l 0.639267,-0.371003 0.456623,-0.08562 0.998856,0.182646 0.633562,0.359589 1.004568,0.09133 0.816208,0.09133 0.730594,0.365297 h 0.456621 l 0.456623,-0.09133 0.08562,-0.182649 -0.268267,-0.359589 -0.273972,-0.273972 -0.182649,-0.273973 0.09133,-0.09133 v -3.66e-4 l 0.273973,-0.36494 0.542237,-0.456621 1.09589,-0.365297 1.272831,-0.08562 0.730594,0.182649 h 0.273973 l 0.450913,0.268265 0.730593,0.273972 0.273973,0.09133 h 0.639269 l 0.633562,0.09133 0.273973,-0.09133 0.547945,-0.09133 v -3.65e-4 -0.364941 -3.65e-4 -0.273973 l -0.371007,-0.273972 -0.359589,0.09703 -0.182646,-0.09703 -0.365299,-0.08562 v -0.182264 h 0.18265 l 0.365295,-0.182649 0.273973,-0.09169 h 0.18265 l 0.176939,0.09169 h 0.273973 l 0.639271,-0.09169 0.182646,0.09169 0.182294,0.182292 -0.36494,0.08562 h -0.09133 -0.365295 l -0.273972,0.182648 v 3.66e-4 0.09667 0.09133 3.65e-4 l 0.09133,0.268265 0.182651,0.182648 0.09133,0.182648 -0.182648,0.182649 v 0.273972 h 0.182648 l 0.547946,0.09133 0.542239,0.09133 h 0.273972 0.273973 l 0.182647,0.09133 0.456621,0.273972 0.542239,0.08562 h 0.182646 l 0.188357,0.273972 0.359589,0.182649 0.365298,0.182646 h 0.547945 0.182647 l 0.268265,-0.182646 0.09133,-0.182649 h 0.365297 l 0.182649,0.09133 0.365296,0.09133 0.365295,0.456621 v 0.273972 l -0.182646,0.365297 0.08562,0.176941 0.09703,0.09703 h 0.450915 0.365297 l 0.365295,-0.273973 0.09133,-0.182648 h -0.365297 l -0.09133,-0.09703 -0.182649,-0.176939 0.09703,-0.547945 0.17694,-0.18265 0.365297,-0.273973 0.273973,-0.273973 0.639269,-0.08562 h 0.359587 0.730596 l 0.821918,-0.09133 h 0.359589 l 0.273972,0.176939 0.547945,0.273972 0.633562,-0.09133 0.365295,0.09133 0.18265,0.09703 0.29074,0.142692 v 7.31e-4 l 0.0742,0.03425 h 0.456623 l 0.08562,-0.17694 0.182648,-0.371005 v -0.359589 l 0.456619,-0.365297 h 0.365299 l 0.365297,0.182647 0.182648,-0.09133 0.450913,-0.09133 0.279679,-0.09133 0.450915,0.09133 v 0.182649 0.18265 h 0.182646 0.182651 l 0.639267,-0.365299 0.450915,0.09133 0.273973,0.09133 0.182646,0.09133 0.633562,0.273973 0.639271,0.09133 0.365297,0.183004 0.365295,-0.183004 0.273973,-0.364941 0.816211,-0.273972 0.365297,-0.09168 0.542238,-0.182649 h 0.188356 0.998858 l 0.724886,-0.09133 0.547945,-0.09133 0.365297,-0.176941 0.633562,0.08562 0.27968,0.09133 0.633562,-0.09133 0.365296,-0.268265 h 0.456621 l 0.730592,0.08562 0.901828,0.182649 1.095891,0.547945 0.182648,0.182646 0.273973,-0.09133 -0.182649,-0.365296 -0.273972,-0.182649 -0.182651,-0.09133 0.273973,-0.359589 v -0.09703 l -0.547945,-0.18265 -0.359589,-0.08562 -0.09703,-0.273972 -0.359589,-0.182647 -0.273972,-0.273972 h -0.182649 -0.547945 l -0.547945,0.365296 -0.724886,0.450912 -0.81621,0.09703 -0.456621,-0.09703 V 60.84903 h 0.456621 l 0.268265,-0.456623 0.273973,-0.547945 0.365296,-0.273973 0.456621,-0.08562 0.547946,-0.09133 0.17694,0.09133 h 0.821918 l 0.09133,-0.09133 0.182648,-0.09703 0.08562,0.09703 v 0.273973 l 0.63927,0.08562 0.182648,0.09133 0.09133,0.18265 0.365297,0.273973 0.182648,0.365295 h 0.450913 l 0.182649,0.09133 0.09133,0.365296 v 0.182649 l 0.09703,0.359589 0.08562,0.182648 0.365297,0.365297 -0.09133,0.365297 h -0.456619 l -0.273972,0.09133 0.273972,0.268265 0.09703,0.182649 0.18265,0.273972 0.633562,0.365297 0.268263,0.456621 0.827627,0.456621 0.08562,0.273973 0.182647,0.542237 v 0.456621 l -0.456619,0.359589 v 0.273973 l -0.08562,0.365296 v 0.365297 0.547945 0.273973 l -0.273972,0.724886 -0.18265,0.182648 0.18265,0.273973 0.176939,0.182648 -0.302512,0.176941 -0.154109,0.09703 v 0.176941 0.182648 l -0.268263,0.273973 h 0.182646 0.273973 l 0.542237,0.09703 0.18265,-0.188356 h 0.273973 0.273973 0.182646 l 0.365299,0.188356 0.176939,-0.188356 h 0.456622 0.09703 0.268265 l 0.09133,0.188356 0.547945,0.268263 0.176941,0.09133 h 0.273973 v -0.09133 l 0.182648,-0.182646 0.182647,0.09133 0.09133,0.273971 0.63927,0.365299 0.359589,0.182648 v -0.273972 -0.182649 l 0.371004,0.09133 0.359589,0.09133 h 0.182649 l 0.09133,0.182648 0.09133,0.176941 h 0.182647 l 0.547945,-0.08562 h 0.182648 l 0.176941,0.273973 v 0.182648 l -0.359589,0.176941 -0.188356,0.182648 -0.359589,0.182649 -0.09133,0.365296 -0.456621,0.182649 v 0.182648 l 0.09133,0.365297 h 0.273972 l 0.456619,0.09133 h 0.182649 l 0.359589,0.182646 -0.359589,0.176943 h -0.456621 -0.09133 v 0.182646 l 0.09133,0.273973 v 0.182648 h 0.359589 l 0.188356,0.273973 v 0.09133 l -0.273973,0.17694 v 3.66e-4 l 0.08562,0.182294 v 3.65e-4 l 0.09703,0.273616 v 3.66e-4 l 0.273973,0.273616 v 3.65e-4 l 0.268265,0.182649 h 0.182648 v 0.18229 h -0.182648 v 3.65e-4 l 0.09133,0.456263 v 3.66e-4 0.273616 3.65e-4 0.182293 3.65e-4 h 0.456621 0.273973 l 0.09133,0.176583 -0.182648,0.09703 -0.365297,0.176939 h -0.182648 l -0.09133,0.09133 0.182648,0.273973 -0.182648,0.273973 v 0.268264 l 0.273973,0.188357 0.09133,0.182648 -0.273973,0.268265 v 0.188356 l 0.09133,0.176941 0.182646,0.273979 0.182649,0.273984 0.09168,0.35958 v 0.188365 0.182649 l 0.09133,0.176931 0.09133,0.09167 0.176941,0.273973 0.27968,0.365297 v 0.273972 l 0.359589,0.09134 0.182648,0.08559 0.273973,0.182648 0.182648,0.188365 0.273973,0.08561 0.182648,0.09704 0.176941,0.176931 v 0.09132 l -0.08562,0.365296 0.268265,0.09134 -0.08562,0.273972 -0.273973,0.09132 -0.182648,-0.09132 0.09133,0.09132 0.182648,0.09132 0.182649,0.17695 0.633561,0.182648 h 0.182649 l 0.273972,0.188347 0.268265,0.08563 v 0.182648 0.182648 l 0.188356,0.09132 0.450913,0.182649 0.365297,0.09134 h 0.456621 l 0.09133,-0.273972 -0.09133,-0.182649 -0.09133,-0.09134 -0.09133,-0.18263 h 0.18265 0.182646 l 0.365299,0.273972 0.359589,0.18263 0.456619,-0.18263 v -0.273972 l 0.182649,-0.359617 h 0.09133 l 0.09133,0.17695 0.273973,-0.09132 0.182648,0.09132 v 0.182667 l 0.365297,0.18263 0.182648,0.273972 0.268265,0.182649 0.09133,-0.182649 0.273973,0.09134 0.182648,0.450904 0.273973,0.182648 h 0.09133 v -0.268255 -0.547945 l 0.09133,-0.450923 -0.182648,-0.639269 -0.09133,-0.273973 -0.09133,-0.273972 0.182647,0.182648 0.18265,0.09167 0.182648,0.09134 v 0.182648 l -0.09703,0.182649 v 0.182648 0.176931 l 0.371005,0.09704 0.08562,0.359233 0.09703,0.273973 -0.182646,0.182648 -0.09133,0.09167 v 0.273972 l -0.09703,0.182649 -0.182649,0.176949 0.09703,0.273973 0.08562,0.273972 0.273973,-0.09169 v -0.182648 l 0.182648,-0.09132 0.273973,0.09132 0.09133,0.273972 0.273973,0.182649 0.365297,0.09169 0.09132,-0.456621 0.176941,-0.542246 0.09703,-0.913242 v -0.450905 l 0.273972,-0.273972 0.359589,-0.273973 0.724884,-0.365296 h 0.09703 0.182649 l 0.17694,-0.273973 h 0.273973 l 0.09703,-0.365297 0.268265,-0.09134 4.64041,-0.08563 v 0 l 0.182649,-4.280473 v -3.65e-4 l -0.08562,-0.547589 0.359589,-0.09169 h 0.273973 l 0.273973,0.09169 v 0.182292 l 0.273972,0.273973 0.09132,0.365297 v 3.65e-4 l 0.08562,0.267909 0.188356,0.09703 v -0.182647 -0.273972 l 0.268265,-0.365299 h 0.182648 l 0.09132,-0.182646 v -0.09133 -0.09133 h 0.273973 l 0.182648,0.09133 0.182649,0.365297 v 0.273972 0.176943 h 0.456621 0.182648 l 0.09133,-0.176943 0.633562,-0.273972 0.273972,-0.09133 h 0.182649 l 0.4509129,0.268265 0.3710046,0.09703 0.2682648,0.176941 0.3652968,-0.176941 0.4509132,-0.09703 0.3710046,-0.176941 0.359589,-0.09133 h 0.4565278 l 0.5479452,0.09133 h 0.6335616 l 0.8219178,0.09133 h 0.6335616 l 0.6392694,0.08562 0.3652968,0.273973 0.5479451,0.456619 0.5479452,0.456619 0.4509133,0.273982 h 0.8219177 1.27283101 0.82191778 L 1.9296386,79.782467 2.2949354,79.691139 V 79.422873 L 2.471876,79.05187 2.6602322,78.595249 3.0198212,78.23566 3.385118,78.14433 3.841739,77.961684 4.1157115,77.870354 4.4810083,77.779026 H 4.657949 l 0.1826484,-0.182648 0.547947,-0.273973 0.3652968,-0.08562 h 0.359589 l 0.2739726,0.08562 v -3.65e-4 l 0.091328,-0.267909 0.4566228,-0.371004 H 7.209326 l 0.5422374,-0.08562 0.8219178,-0.182648 0.1826466,0.09133 0.1826484,0.273972 -0.2739726,0.273973 v 0.268265 0.365296 l -0.091328,0.273973 0.365295,0.456621 0.3652968,0.273973 0.2739726,0.09133 0.542237,0.182649 h 0.63927 l 0.81621,-0.182649 0.913242,-0.365296 h 0.273972 v -0.273973 h -0.182646 l -0.09133,-0.182648 V 77.6877 l 0.633562,-0.273972 0.365297,-0.35959 h 0.365296 l 0.09133,0.08562 h 0.365299 l 0.182646,0.182648 0.182649,0.09133 v -0.542234 l 0.273972,-0.188356 h 0.359589 l 0.182651,-0.268267 v -0.09133 l 0.273972,-0.182651 -0.456623,-0.182646 -0.359589,-0.182649 h -0.639267 l -0.18265,-0.365296 0.18265,-0.268265 v -0.456623 l -0.365299,-0.182647 0.09133,-0.365298 -0.09133,-0.182647 -0.182646,-0.359589 0.365295,-0.365298 0.365296,-0.182647 0.724888,-0.365299 v -0.09133 L 15.131693,72.316691 14.67507,71.860068 V 71.40916 l -0.456621,-0.821918 -0.730592,-0.99886 -0.268267,-0.91324 -0.456621,-0.724886 V 67.310985 66.763039 L 12.30635,66.129478 12.21502,65.672859 11.57575,65.124913 11.124837,64.765324 10.668216,64.308703 V 63.669434 L 10.302922,63.395461 10.120274,62.93884 9.754977,62.487927 V 62.031306 61.397745 60.119204 59.120348 L 9.6636492,58.572402 9.3040602,58.11578 H 9.1214118 L 8.5734666,58.481078 H 8.3908182 L 7.7515488,58.755051 7.1179872,58.663365 6.4787178,58.846015 6.0278046,58.937699 5.3885352,58.755051 4.8405901,58.663367 4.3839691,58.212453 4.2070284,57.482216 4.1157042,57.025595 3.5677591,56.568974 3.1111381,56.203677 2.7458413,55.473084 2.2036039,54.930846 2.1122778,54.291577 2.2949262,53.931988 v -0.365297 -0.547945 l 0.2739726,-0.542237 0.3595891,-0.63927 0.2739725,-0.730593 V 50.747057 L 3.0198212,50.290461 v -0.456623 l 0.1826484,-0.182646 0.097032,-0.359589 0.085616,-0.371005 -0.1826484,-0.359589 v -0.456623 l -0.09168,-0.09133 v -3.66e-4 l 0.1883562,-0.365377 v -3.65e-4 -0.638915 -3.66e-4 -0.26791 -3.65e-4 l -0.456621,-0.45662 -0.913242,-0.273973 H 1.0160405 -0.52505536 l -0.82191774,-0.09133 -0.6392694,-0.18265 -0.3652968,-0.456619 -0.2739726,-0.268265 -0.5422374,-0.365297 -0.456621,-0.182648 -0.6392694,-0.273973 -0.4509132,-0.09133 -0.456621,-0.273973 -0.2739726,-0.542235 -0.091324,-0.182651 v -0.365295 l 0.1826484,-0.365298 V 41.825 l 0.091324,-0.913242 0.09168,-0.81621 0.3652968,-0.639269 0.091324,-0.639269 0.091326,-0.633562 0.1826484,-0.365297 0.5422374,-0.365297 0.6392694,-0.724885 0.2739726,-0.365297 0.5479452,-0.365297 0.4509132,-0.182648 0.8219177,-0.913242 0.72488586,-0.81621 0.36529679,-0.724886 0.18264839,-0.279679 0.63926938,-0.633561 0.54223738,-0.639271 0.1826484,-0.45662 0.091324,-0.724887 0.3652968,-0.730592 0.2739726,-0.99886 0.2682648,-0.365297 0.1883562,-0.182648 0.4509132,-0.182647 0.2568493,-0.342466 0.017114,-0.01711 0.7305935,-0.553653 0.9075342,-1.084475 0.5479452,-0.273972 0.5422374,-0.09703 0.553653,-0.176942 h 0.1769388 l 0.6392712,0.176942 0.5422356,0.371003 0.5479452,0.542237 0.2739726,0.182651 0.1822922,0.181934 v 3.65e-4 0.176585 l 0.09133,0.188356 v 0.639271 0.268265 l 0.2739726,0.456619 3.653e-4,7.31e-4 0.4562648,0.632845 3.653e-4,7.31e-4 0.3592324,0.364582 3.65e-4,7.31e-4 0.273973,0.188356 0.18265,0.176943 h 0.639268 0.907534 l 0.730595,-0.273973 1.638128,-0.99886 1.45548,-0.639268 1.272831,-0.273972 1.272829,-0.176941 1.187216,0.08562 1.272831,-0.08562 2.910959,-1.187216 0.456621,-0.365295 0.182648,-0.359589 0.182649,-1.004568 V 24.15955 l 0.273972,-0.542235 0.542238,-0.730596 0.639267,-0.542237 1.004568,-1.004565 0.724884,-0.724887 0.365299,-0.547945 0.365297,-1.912099 0.365295,-1.820778 0.09133,-0.365295 0.998859,-1.181507 0.724885,-0.273972 0.63927,-0.09133 0.273972,-0.456619 0.81621,-0.456623 4.737443,-2.72831 0.182649,-0.9988588 0.17694,-0.5479452 0.456621,-0.5479452 0.63927,-0.5422374 0.273972,-0.7305935 1.78653,-3.8584474 1.352739,-5.4109586 0.125575,-0.2511416 2.517123,-1.1643835 1.929224,-0.6392693 0.445205,-0.194064 0.456621,-0.4509132 1.090184,-1.0273972 0.131274,-0.3881278 -0.194064,-0.9018265 -0.194064,-0.4509132 -0.319635,-0.3881278 -0.450913,-0.194064 -0.25685,-0.062782 -0.130916,-0.06278 0.193704,-0.2564931 v -3.653e-4 l 0.06278,-0.1309187 v -0.1883562 l 0.262557,-0.1312731 0.06278,-0.1940639 0.125575,0.062782 h 0.194065 l 0.25685,-0.1255763 v -3.653e-4 l 0.194062,-0.1937096 v -3.653e-4 l 0.125576,-0.2564931 v -3.653e-4 l 0.194064,-0.1937096 v -3.653e-4 l 0.131273,-0.3249863 0.256849,-0.1883564 0.25685,-0.194062 v -3.65e-4 -0.125574 -0.262557 l 0.06849,-0.450914 v -0.194064 l 0.256849,-0.256849 0.125576,-0.38242 0.194062,-0.130917 0.194066,-0.06278 0.319633,-0.194063 0.131275,-0.194063 0.256849,-0.256849 v -0.325342 h 0.194062 v -0.119863 l 0.251144,-0.262559 0.06849,-0.194064 0.194062,-0.256849 0.194066,-0.125575 v -3.65e-4 -0.193708 -3.65e-4 l -0.06849,-0.262203 v -3.65e-4 -0.125575 l 0.325343,-0.130918 0.256849,-0.125931 v -0.450915 -0.256849 l 0.325343,-0.25685 0.188356,-0.06849 0.125574,0.06849 0.262557,0.06278 0.125575,0.06278 0.131275,-0.125574 0.06278,-0.262559 0.194063,-0.313925 0.131274,-0.131275 h 0.38242 0.262557 l 0.251141,-0.194062 0.325343,-0.125577 0.125574,-0.650684 v -0.25685 l 0.388128,-0.194064 h 0.131273 0.319635 l 0.256849,-0.445205 0.256849,-0.325343 -0.06278,-0.194062 -0.382422,-0.125576 -0.194063,-0.06278 -0.262556,0.06278 -0.188356,0.125576 -0.38813,-0.188356 -0.325342,-0.131275 v -0.256849 -0.382418 -0.194066 l 0.131275,-0.194064 0.06278,-0.325341 -0.06278,-0.388129 -0.06278,-0.194062 0.06278,-0.507993 0.256849,-0.256849 v -0.325343 -0.194062 l 0.131273,-0.194064 0.06278,-0.251141 0.256849,-0.38813 0.131273,-0.388126 0.06278,-0.325342 -0.131275,-0.25685 -0.06278,-0.251141 -0.194064,-0.262557 -0.256849,-0.125577 0.131275,-0.388127 -0.194066,-0.388126 v -0.382422 l -0.325342,-0.194064 v -0.25685 l -0.125575,-0.194062 -0.06849,-0.131275 -0.125932,-0.256849 -0.194064,-0.06278 -0.125575,-0.256849 v -0.194066 l 0.06278,-0.188356 0.131275,-0.131273 0.125575,-0.194064 v -0.130919 -3.65e-4 l -0.06278,-0.125576 v -0.130917 -3.65e-4 l 0.131273,-0.256494 v -3.65e-4 l 0.38242,-0.450557 0.839041,-0.644977 v -3.65e-4 l 0.445205,-0.644621 0.194064,-0.125933 h 0.06278 l 0.131275,0.06278 h 0.450913 l 0.325343,-0.06278 0.125576,-0.188356 v -0.130917 -3.65e-4 -0.387772 -3.65e-4 -0.193708 -3.65e-4 l 0.194064,-0.193708 h 0.125574 0.25685 0.262557 l 0.125574,-0.06278 v -0.131273 h 0.256833 l 0.388126,-0.06278 0.382422,-0.131273 0.194062,-0.25685 0.262557,-0.05708 v -0.194062 l 0.125576,-0.256849 0.25685,-0.06849 h 0.325342 l 0.256849,0.194062 0.125931,0.131275 h 0.194066 l 0.06242,-0.194066 0.131275,-0.131273 h 0.125575 l 0.262557,0.06849 0.125576,-0.06849 h 3.65e-4 v -0.194064 -0.194066 l 0.130919,-0.125574 0.319635,-0.131275 0.319634,-0.194062 0.559361,-0.09703 0.365297,-0.08562 0.09169,-0.639268 0.176939,-0.365296 0.273972,-0.365297 v -0.724906 l -0.450891,-0.365297 -0.639269,-0.450913 h -3.66e-4 l -0.364939,-0.188356 -0.542239,-0.08562 h -3.65e-4 l -0.456265,-0.27968 -0.816212,-0.08562 -0.371002,-0.547946 h -3.66e-4 l -0.541879,-0.273972 -0.365655,-0.09132 -0.547945,0.547945 -0.54188,0.17694 -0.273972,-0.359589 -0.547945,-0.273972 -0.547946,0.273972 -0.451271,0.182649 h -0.456263 l -0.450915,-0.273973 -0.371003,-0.547945 -0.08562,-0.542237 v -0.09132 l 0.359589,-0.639269 0.09667,-0.365297 -0.371004,-0.456621 v -0.542237 l -0.08562,-0.365297 0.182649,-0.456621 0.273972,-0.542237 -0.188356,-0.182649 -0.365295,0.456621 -0.176942,0.176941 -0.63927,0.273973 h -0.542237 -0.371003 l -0.359589,-0.365297 -0.456623,-0.08562 -0.365295,0.268265 -0.456622,0.09132 -0.273973,-0.182648 -0.251141,-0.428082 -0.01712,-0.02283 0.182649,-0.456621 0.182646,-0.273973 -0.09667,-0.273972 -0.268265,-0.273973 v -0.182648 l 0.182649,-0.273973 h -3.66e-4 l -0.18229,-0.176941 -0.365299,-0.182648 h -3.65e-4 l -0.547589,-0.547945 h -3.65e-4 l -0.547589,-0.182649 h -3.66e-4 l -0.18229,-0.182648 -0.450915,-0.08562 -0.273973,-0.371005 -0.273972,-0.456621 h -3.66e-4 l -0.359232,-0.268265 -0.63927,-0.730593 -0.273974,-0.542238 v -0.09132 -0.547945 l 0.09133,-0.365297 0.365297,-0.182648 0.633562,-0.268265 0.182648,-0.188356 0.182649,-0.542238 v -0.456621 -0.456621 l -0.182649,-0.359589 0.273973,-0.273972 v -0.456621 -0.365297 l -0.365297,-0.63927 -0.268265,-0.08562 -0.456621,-0.182648 -0.365297,-0.182649 -0.273972,-0.09168 -0.359589,-0.273973 -0.188356,-0.273616 v -3.65e-4 l -0.182654,-0.364941 v -3.65e-4 l 0.09703,-0.456621 0.176939,-0.633206 v -3.65e-4 l 0.326058,-0.456265 0.130205,-0.182648 3.65e-4,-3.66e-4 0.547589,-0.182292 3.66e-4,-3.65e-4 0.17694,-0.273617 h 0.456265 l 3.65e-4,-3.65e-4 0.730594,-0.267908 v -3.66e-4 l 0.456621,-0.547589 v -3.65e-4 l 0.365297,-0.364941 v -3.65e-4 -0.359233 -3.65e-4 l 0.171232,-0.176585 0.0054,-0.0057 3.65e-4,-3.66e-4 0.182649,-0.365296 -0.81621,-0.365297 -0.456621,0.09168 -0.63927,-0.09168 h -0.456621 v 3.65e-4 l -0.08562,0.273617 h -0.639253 -0.182648 l -0.730592,-0.09132 -0.176943,-0.182648 -0.456619,-0.639269 -0.273972,-0.273973 v -0.450913 l 0.09133,-0.547945 0.456622,-0.09132 0.45662,-0.09133 0.182648,-0.176941 0.08562,-0.639269 -0.182648,-0.821918 -0.633562,-0.633562 -0.182646,-0.09133 -0.547945,-0.365298 -0.273973,-0.09133 h -0.450915 l -0.365297,-0.365297 0.365297,-0.182648 0.273973,-0.273973 0.450915,-0.09133 v -0.542237 l -0.273973,-0.273973 0.182647,-0.456621 0.547945,-0.273972 0.182648,-0.273973 0.18265,-0.542237 -0.365298,-0.188356 v -0.359589 l 0.724887,-0.365297 1.004565,-0.182649 0.907536,-0.365296 0.913242,-0.633562 0.542237,-0.273973 0.730592,-0.365296 h 0.547945 l 0.365299,0.182648 0.724885,0.365297 1.187213,0.273972 0.907534,0.182649 0.456623,0.182648 0.182649,0.176941 0.273972,0.09703 0.456619,-0.188356 h 0.450915 l 1.181507,0.188356 0.273973,0.08562 0.547945,0.273972 0.633562,0.09133 0.182646,0.09133 0.456623,-0.09133 0.456621,-0.365297 0.456619,-0.08562 h 0.542239 0.365295 l 0.273973,0.08562 0.18265,0.365297 0.273971,0.182648 0.730595,0.365297 0.273973,0.182649 0.450911,0.182648 h 0.730596 0.907534 l 1.364155,0.09133 0.456619,-0.09133 0.54224,0.09133 0.273972,-0.09133 0.279679,-0.365297 0.542239,-0.365297 0.456621,-0.365296 0.359589,-0.456621 0.273972,-0.268265 0.45662,-0.456621 0.547945,-0.182649 h 0.730595 0.359598 0.456621 l 0.456621,-0.09133 0.542229,-0.182649 v -3.65e-4 l 0.188365,-0.273614 0.816201,-0.542238 0.456621,-0.09703 h 0.542246 l 0.456621,0.09703 0.547945,0.08562 0.547946,-0.08562 0.633552,-0.182648 0.456621,-0.273973 0.182649,-0.273972 0.268273,-0.547946 0.547946,-0.359589 0.09134,-0.456621 v -3.65e-4 l -0.450922,-0.273973 V -74.1455 l 0.268274,-0.182648 0.547945,-0.188357 0.821918,-0.359589 h 0.633552 0.365297 l 0.456621,-0.273972 0.182648,-0.821918 -0.182648,-0.542237 v -3.66e-4 -0.456263 l 0.273973,-0.09133 6.187214,-4.646121 1.089826,-0.450913 v 0 -3.65e-4 l -0.359598,-0.09133 h -0.639288 l -0.365296,-0.09133 -0.547945,-0.09133 -0.542229,-0.09133 -0.639269,0.09133 -0.456621,0.273973 -0.450922,-0.18265 -0.63927,-0.365295 -0.639269,-0.273973 -0.456621,0.09133 -0.724877,0.09133 -0.359598,-0.182649 -0.547945,-0.268265 -0.365297,-0.273972 h -0.639269 l -0.730594,-0.09703 -0.542228,-0.35959 -0.547945,-0.365296 -0.365297,-0.09133 -0.359598,0.182647 -0.63927,-0.547944 -0.547945,-0.359589 -0.816201,-0.456621 -0.456621,0.09133 -0.182648,-0.182292 v -3.65e-4 -0.273616 -3.65e-4 l -0.182649,-0.273616 v -3.66e-4 l -0.273972,-0.273616 v -3.65e-4 l 0.188347,-0.456265 v -3.65e-4 l 0.08562,-0.542238 h -0.273972 l -0.450923,0.365297 -0.273972,0.09169 -0.365297,0.08562 -0.09132,0.09667 v 3.65e-4 l -0.273973,0.359231 -0.268255,-0.09133 h -0.273973 l -0.365297,0.09133 v 3.66e-4 l -0.09132,0.364939 -0.365297,-0.09133 -0.547945,-0.09133 -0.359598,0.09133 h -0.279671 v 0 l -0.359244,-0.176941 -0.365297,-0.45662 v -0.456622 l -0.182648,-0.913241 -0.273973,-0.359589 h -3.65e-4 l -0.547589,-0.18265 h -3.66e-4 -0.450558 -0.45662 -3.65e-4 l -0.547589,-0.182647 -0.359589,-0.63927 v -0.456621 l 0.176943,-0.365297 0.279678,-0.182648 0.359589,-0.176941 0.09133,-0.273973 v -0.273972 l -0.09133,-0.365296 0.18265,-0.18265 0.456263,-0.08562 h 3.66e-4 v -0.273973 h -3.66e-4 l -0.456263,-0.182648 -0.268266,-0.730593 v -0.365297 -0.182648 -1.090184 l -0.188356,-0.45662 -0.182649,-0.542237 -0.456619,-0.63927 -0.359589,-0.547945 -0.09169,-0.365296 -0.456621,-0.542238 -1.004566,-0.730593 -0.998858,-0.365298 h -0.633562 l -0.730594,-0.09133 h -0.450913 l -0.182648,0.273972 0.182648,0.182648 H 62.27742 l -0.450913,0.09133 -0.456623,-0.547945 v -0.456611 -0.450912 -0.82192 l -0.633561,-0.45091 -0.456619,-0.18836 -0.730594,-0.0856 h -0.639269 l -0.542238,-0.3653 -0.547945,-0.0913 h -0.724886 l -0.547945,0.18265 -0.821918,0.18265 -0.268265,0.45662 h -0.188356 l -0.359589,-0.82192 -0.18265,-0.27397 -0.456619,-0.0913 h -0.724899 l -0.456619,-0.17694 -0.09133,-0.097 H 52.72261 Z" />
    </clipPath>
  </defs>
  <sodipodi:namedview
     pagecolor="#ffffff"
     bordercolor="#666666"
     borderopacity="1"
     objecttolerance="10"
     gridtolerance="10"
     guidetolerance="10"
     inkscape:pageopacity="0"
     inkscape:pageshadow="2"
     inkscape:window-width="1366"
     inkscape:window-height="697"
     id="namedview27"
     showgrid="false"
     inkscape:zoom="0.35355339"
     inkscape:cx="267.28636"
     inkscape:cy="702.86414"
     inkscape:window-x="-8"
     inkscape:window-y="-8"
     inkscape:window-maximized="1"
     inkscape:current-layer="svg2"
     inkscape:pagecheckerboard="0" />
  <comment
     id="comment12">rotation angles = -arctan(8/9)</comment>
  <g
     id="g1197"
     transform="matrix(0.73000001,0,0,0.73000001,6.4916212,35.0833)"
     style="opacity:1;stroke-width:1.36986"
     clip-path="url(#clipPath1315)">
    <rect
       x="-185.31963"
       y="-40"
       width="230.31963"
       height="176.43835"
       fill="#ffffff"
       id="rect1176"
       style="stroke-width:1.67739" />
    <rect
       x="-45"
       y="-158.35616"
       width="198.12784"
       height="338.63013"
       fill="#01411c"
       id="rect1178"
       style="stroke-width:1.67739" />
    <circle
       r="24"
       fill="#ffffff"
       id="circle1180"
       cx="0"
       cy="0"
       style="stroke-width:1.67739" />
    <circle
       r="22"
       cx="-7"
       cy="-40"
       fill="#01411c"
       transform="rotate(-41.63354,45,-40)"
       id="circle1182"
       style="stroke-width:1.67739" />
    <polygon
       points="301930,415571 -488533,-158734 488533,-158734 -301930,415571 0,-513674 "
       fill="#ffffff"
       transform="matrix(1.4267854e-5,-6.2434211e-6,6.2434211e-6,1.4267854e-5,11.958549,-10.629822)"
       id="polygon1184"
       style="stroke-width:1.67739" />
  </g>
  <path
     id="path4875"
     style="fill:none;stroke:#01411c;stroke-width:0.2;stroke-miterlimit:4;stroke-dasharray:none;stroke-opacity:1"
     d="m 44.979164,-39.847434 -0.4,0.133334 -0.395834,0.199998 -0.2,0.199998 0.133334,0.200006 -0.199999,0.199998 -0.06667,-0.199998 -0.462501,-0.133335 h -0.07083 -0.333335 l -0.329165,0.199998 -0.266667,0.266669 -0.333333,0.199999 -0.2625,0.129166 -0.200001,0.266669 -0.333335,0.266661 -0.06667,-0.199998 h -0.400001 l -0.195834,0.06665 v 0.400001 0.2625 l -0.466666,0.133334 -0.4,0.06667 -0.195835,-0.06667 -0.333333,-0.195834 -0.533331,-0.266666 h -0.333334 l -0.266667,-0.133334 h -0.595833 l -0.395834,0.06667 -0.6,-0.200001 h -0.0039 c 0,0 -0.130003,0.200218 -0.395833,0.266669 -0.26549,0.0665 -0.2625,0.266666 -0.2625,0.266666 l -0.333334,-0.06667 -0.2,-0.133334 -0.2,-0.06667 h -0.6 l -0.466666,0.129166 -0.729167,0.1375 H 32.8211 32.221099 31.887766 l -0.395833,0.2625 h -0.466667 -0.333333 l -0.266667,0.133334 -0.529166,0.133333 H 29.562766 29.166933 28.6336 l -0.533334,0.133333 -0.595833,0.06667 -0.266667,0.2 -0.2,0.266667 -0.333333,0.133333 -0.529167,0.06667 -0.333333,-0.06667 -0.395834,0.2 -0.404166,0.195833 -0.4625,0.06667 -0.333333,0.06667 0.06667,0.2 0.266665,0.2 v 0.2625 H 24.446102 24.179435 23.91277 l -0.195834,0.204166 -0.333334,0.129167 v 0.2 0.2 l -0.2,0.06667 -0.266667,0.133333 -0.199999,0.266667 -0.333334,0.133333 -0.129167,0.195833 -0.533332,0.2 H 21.258602 21.12527 v 2.66e-4 l -0.06667,0.19974 v 2.66e-4 l 0.2,0.2 0.0625,0.328906 v 0.204427 l -0.129167,0.128908 -0.199999,-0.0625 -0.200001,-0.06667 -0.06693,-0.204166 -0.333334,-0.2625 -0.395833,-0.06667 -0.399999,0.06667 v 0.2625 l -0.06667,0.270833 -0.133333,0.133333 -0.266667,0.129167 0.06667,0.133333 h 2.67e-4 l 0.06667,0.06667 v 2.67e-4 l 0.133334,0.133073 v 2.66e-4 l -0.06693,0.199741 h -0.333333 l -0.195835,0.133333 -0.2,0.195832 v 2.67e-4 l -0.133332,0.133073 v 2.67e-4 l -0.333333,0.39974 -0.06667,0.133333 -0.133332,0.133334 h -0.2 -0.195835 v 2.66e-4 l -0.2,0.333073 v 2.67e-4 l -0.07084,0.333023 -0.195833,0.0625 -0.333332,0.2 -0.06667,0.133333 v 2.67e-4 l -0.06667,0.199739 v 2.67e-4 l -0.199999,0.266405 -0.129167,0.06693 v 0.2625 l 0.129167,0.07057 0.199999,0.196094 0.266667,0.333073 v 2.67e-4 l 0.466666,0.133072 0.2625,0.133594 0.200001,0.133334 0.133333,0.133072 v 0.133334 2.66e-4 0.199741 2.66e-4 l 0.133333,0.128907 h 0.2 l 0.2,0.199999 0.195834,0.4 v 0.2 l 0.199999,0.133594 -0.0625,0.19974 v 2.66e-4 l 0.133333,0.195574 v 2.66e-4 l 0.195833,0.133074 0.133334,0.06693 v 0.133333 0.266667 0.2 l -0.133334,0.2 -0.06667,0.2 0.06667,0.195833 0.2,0.06667 0.06667,0.133334 0.2,0.06667 0.2,0.133332 0.129166,0.266668 v 0.133332 l -0.0625,0.129168 h -0.2 l 0.133333,0.133332 0.06667,0.2 0.0625,0.266668 0.199999,0.133332 0.204166,0.266668 v 0.2 l -0.204166,0.329166 -0.199999,0.1375 -0.195835,0.0625 -0.133333,0.133333 h -0.2 l -0.06667,0.133332 -0.06667,0.266668 0.333333,0.266666 0.2,0.2625 0.2625,0.200001 0.06667,0.133333 h 0.266665 v 0.133332 0.266668 l -0.133332,0.395832 -0.262501,0.204168 -0.266667,0.0625 -0.2,0.133332 -0.2,0.466668 0.06667,0.2 0.133332,0.2 -0.266665,0.195833 -0.06667,0.133332 -0.02083,0.07083 -0.1125,0.329166 -0.4,0.2 -0.529167,0.2625 -0.466668,0.133334 -0.2,0.400001 -0.129165,0.333333 v 0.266666 l -0.2,0.2625 -0.266667,0.133334 -0.266667,0.266667 -0.4625,0.4 -0.270833,0.133333 -0.129167,0.133332 v 0.4 0.395834 0.266666 l -0.200001,0.2 -0.333331,-0.07083 -0.329168,0.07083 v 0.329168 0.333332 l -0.07057,0.2 0.333334,0.2 0.266667,0.2 0.199999,0.333335 0.2625,0.195832 0.270834,0.06667 0.133333,0.06667 v 0.333334 0.266666 l -0.133333,0.0625 -0.133334,0.270834 -0.06693,0.133333 v 0.1291673 l 0.06693,0.1999991 0.195833,0.066664 0.07057,0.1333338 -0.133333,0.1333331 0.133333,0.3291664 -0.204167,0.2708337 H 15.941666 L 15.675,-8.6137885 v 0.2666668 l 0.195834,0.3999998 -0.2625,0.1291662 H 15.275 l -0.266667,0.1333338 -0.262499,0.2708329 h -0.199741 -2.66e-4 l -0.19974,-0.070832 h -2.67e-4 -0.2 v 0.2666668 l -0.06667,0.2000003 h -0.395833 -0.1375 l -0.133335,0.066671 -0.2625,0.1333331 -0.4,-0.1333331 h -0.4 l -0.4625,0.066664 -0.333332,0.066926 h -0.4 l -0.329166,0.066664 H 10.49165 l -0.466666,-0.066664 -0.1333337,-0.1999995 -0.4625,0.066664 L 9.095816,-7.0843626 H 8.899996 L 8.566664,-7.2177197 8.2333307,-7.3510528 7.8999974,-7.4843866 7.4333307,-7.5510502 H 7.0374974 L 6.7041641,-7.6843832 H 6.1083308 l -0.4,0.133333 -0.1333333,0.066664 0.1333333,0.2666669 v 0.1333337 l -0.2666666,0.1999996 -0.1333334,0.1333338 0.066668,0.1999995 0.2,0.2000003 0.1333333,0.1958335 0.066927,0.1374999 0.0625,0.2624999 0.2,0.2666661 0.070573,0.2000003 0.1958333,0.133333 v 0.2625 l 0.1333333,0.066664 0.2,0.1333331 0.2625,0.066664 0.5333333,0.1333337 0.2666667,-0.066664 0.1333333,0.3333334 v 0.2000003 l 0.066926,0.1958334 0.1333334,0.066664 0.2,0.2041664 -0.066926,0.3291672 -0.066668,0.5333329 -0.1333334,0.3291665 0.1333334,0.1333338 0.1333346,0.1333331 v 0.2666668 h 0.2624987 l 0.2666666,0.2666668 0.1375001,0.1958334 0.3291679,0.3333334 0.066667,0.26666604 v 0.46666711 l -0.3333334,0.0666636 -0.1333333,0.20000029 -0.3958333,0.46249954 -0.2666667,0.0666709 -0.2,0.13333377 L 7.8333319,0.82394211 7.6999986,1.0239424 H 7.4333307 L 7.2333308,0.9531105 7.0374974,1.0239424 v 0.1999988 l -0.2,0.2625 -0.066667,0.1333331 H 6.5041641 6.3708308 l -0.2625,0.2000003 -0.3333333,0.1999995 -0.3333333,0.1333338 h -0.2 l -0.2,-0.2000003 L 4.7749975,1.7531073 H 4.6416642 l -0.2625,0.1333338 -0.2666667,0.3333333 -0.2,-0.066671 -0.5958333,-0.066664 -0.5333333,0.133333 -0.2,0.1999996 L 2.2499975,2.7489397 2.183331,3.0156066 V 3.3489392 L 2.2499975,3.7447729 2.3166655,3.9447732 2.2499975,4.2781058 2.183331,4.3447767 1.9833311,4.4781097 1.8541644,4.7447766 1.720831,5.0072765 1.3874978,5.2072761 1.2541644,5.3406099 l 0.1333334,0.2666668 0.1999999,0.133333 0.1333333,0.1333331 0.0625,0.1958334 v 0.2041671 l 0.070833,0.2625 -0.2,0.3999999 L 1.2541649,7.4031096 1.1208315,7.7364429 H 0.72083095 L 0.52499764,7.8697767 0.25833098,7.9989429 0.19166446,8.3989427 0.05833112,8.7989433 v 0.4624995 l 0.2,0.2666668 0.12916664,0.2666669 0.001825,0.00679 c -5.3334e-4,4e-4 -0.001197,6.672e-4 -0.001825,0.00109 l 0.0708334,0.2583335 v 5.33e-4 0.195314 5.33e-4 l -0.0708334,0.270312 v 5.33e-4 l -0.0624997,0.328645 v 2.67e-4 2.67e-4 l 0.13333334,0.266407 v 2.66e-4 l -0.13333334,0.332812 -0.0666665,0.329168 v 5.33e-4 0.13698 5.34e-4 l 0.0666665,0.26198 v 5.33e-4 l 0.13333334,0.266668 v 0.332812 5.33e-4 l 0.13333333,0.461981 v 5.33e-4 l 0.19999993,0.333333 v 0.336979 5.33e-4 0.05781 l -0.33333326,0.133332 -0.20000001,0.333333 -0.26666666,0.133335 -0.2,0.133331 v 0.200001 5.32e-4 0.266148 l -0.33333334,0.06667 -0.13333333,0.2625 -0.12916664,0.333335 -0.33333302,0.266666 -0.2000003,0.133334 -0.133333,0.195832 -0.1958335,0.2 -0.4041667,0.204168 h -0.1958334 l -0.3999999,0.0625 -0.4666664,0.266665 -0.3958337,0.2 h -0.2666661 l -0.2000003,-0.466665 -0.066664,-0.195835 -0.2625,-0.133333 -0.2666668,-0.4 v -0.333332 l -0.2666668,-0.266668 -0.3999998,-0.06667 -0.2625,-0.0625 v -0.133333 l -0.1833329,-0.1375 c -4.001e-4,5.33e-4 -8.03e-4,0.0011 -0.00131,0.0016 l -0.086197,-0.06354 -0.2625007,-0.133333 -0.3999998,0.266667 -0.4624996,0.06667 v 0.0625 l 0.2625,0.133333 0.1999996,0.06667 h 0.1333337 l 0.3333334,0.07083 0.1330731,0.195572 -0.1330731,0.19974 h -0.2666712 l -0.1333331,-0.04583 c -4e-4,5.34e-4 -9.49e-4,0.0011 -0.00131,0.0016 l -0.2653645,-0.08854 -0.3333333,-0.06667 -0.395833,-0.133333 -0.2666668,-0.0625 H -8.312525 l -0.2000003,-0.2 -0.2666668,-0.133333 -0.133333,-0.270833 H -9.312525 l -0.2000003,0.1375 -0.133333,0.266666 -0.2624997,0.329167 -0.333335,0.2 -0.06667,0.2 0.06667,0.133333 v 0.2 h -0.2 -0.195832 l -0.133333,0.129167 -0.200001,0.266666 -0.333334,0.1375 h -0.333333 -0.395773 l -0.399999,0.395834 -0.133332,0.266667 -0.400001,0.266666 -0.399999,0.133334 h -0.395835 l -0.4,-0.133334 h -0.466665 l -0.0625,0.0625 0.2,0.2 0.0625,0.2 0.133332,0.133333 -0.06667,0.333334 v 0.133333 l 0.199999,0.133334 0.266667,0.133333 h 0.195842 0.404166 l 0.395833,-0.07104 0.200001,0.2 0.06667,0.333333 -0.2,0.266667 h -0.4625 l -0.266667,0.266665 -0.533333,0.395835 h -0.466666 l -0.262501,0.133333 -0.399998,0.133332 -0.6625,0.133334 -0.666667,0.06667 -0.4,0.06667 h -0.329168 l -0.333332,-0.133334 -0.266668,-0.06667 -0.466665,-0.133334 h -0.395835 -0.4 l -0.266665,-0.129166 v -0.270921 l 0.133333,-0.195833 -0.2,-0.133333 -0.329168,-0.06667 -0.6,0.133332 -0.666665,0.2625 -0.2625,0.4 -0.266667,0.2 -0.266668,0.06667 -0.395833,0.06667 -0.204166,0.329168 v 0.404165 l -0.129166,0.529167 -0.333335,0.2 -0.266665,0.333333 -0.2,0.2625 -0.4625,0.333335 -0.666668,0.133333 -0.6625,0.133332 -0.466666,1.2625 -0.595834,2.391668 v 0.2 l 0.2625,0.4625 0.266668,0.270832 v 0.2625 l 0.06667,0.333335 -0.133333,0.333333 -0.133333,0.2625 -0.06667,1.529167 -0.2,0.2 -0.2,0.266665 -0.133333,0.4 -0.129167,0.395835 -0.06667,0.4 0.329167,0.333333 0.666666,0.6625 -0.06693,0.466665 -0.8625,0.729168 -10.895573,2.858332 -0.404168,-0.06667 h -2.67e-4 l -0.158074,-0.0375 -0.158072,-0.0375 v -5.77e-4 l -1.075045,-0.258332 -1.195833,-0.133333 h -1.0625 l -1.133333,0.07083 -0.595835,0.129168 h -0.333332 l -0.729168,0.266665 -0.6,0.133335 -0.333332,0.333332 -0.329168,0.399999 -0.266666,0.395834 h -0.333334 l -0.595832,-0.333333 -1,-0.333333 -1.129168,-0.329167 -1.791665,-0.4 -9.704168,0.533333 -0.4625,-0.06693 -13.958327,-5.516678 H -74.9 v 2.67e-4 0.133333 l 3.591666,4.916668 h 0.2625 l 0.133335,0.133332 v 0.2 l -0.06665,0.395834 -0.133335,0.2 v 0.2 l 0.266669,0.4 0.199999,0.133334 0.06665,0.2 0.06665,0.2625 v 0.270832 l 0.133334,0.129168 0.19583,0.133332 0.133334,0.133334 v 0.2 l 0.137503,0.133334 h 0.129166 l 0.06665,0.2 -0.195837,0.2625 -0.07081,0.204165 0.333333,0.2625 0.06694,0.2 0.333332,1.062501 0.595834,0.995835 0.466667,0.599999 0.400003,0.4625 0.595834,0.8 0.666665,0.662501 0.466666,0.333333 h 0.329166 l 0.266666,0.266665 0.466667,0.133335 0.6625,0.199999 0.400001,0.06667 0.729165,0.395835 0.8,0.133332 0.4625,0.333333 0.333334,0.333335 0.266667,0.133332 0.129166,0.395833 0.400001,0.533335 0.4,0.395832 0.533333,-0.133332 1.0625,-0.0625 0.133332,0.2625 v 0.533332 l -0.07083,0.4 -0.0625,0.4625 -0.199999,0.466668 v 0.333332 0.466668 l 0.06667,0.6625 0.195833,0.8625 0.200001,0.6 v 0.6625 l -0.0625,0.6 v 0.666665 0.4625 0.6 l -0.06667,0.329168 -0.333333,0.733332 -0.266667,0.2 v 0.0625 l 0.133333,0.266667 0.06667,0.2 -0.133333,0.2 -0.266667,0.133332 0.133333,0.133333 0.2,0.129167 0.266667,0.133333 h 0.266666 l 0.395834,0.137501 0.266667,0.0625 h 0.266666 0.2 l 0.4625,-0.133333 0.533333,-0.129166 h 0.333334 0.2625 l 0.204167,-0.07083 h 0.2625 l 0.199999,0.07083 0.200001,0.262499 h 0.133333 l 0.466667,0.4 0.0625,0.4 v 0.333335 h -0.2 l -0.195834,0.2 -0.266666,0.395832 v 0.333333 0.995839 l 0.06667,0.133333 0.2,0.195835 -0.133333,0.270832 -0.333333,0.133333 -0.266667,0.195835 v 0.266666 l -0.195834,0.729166 -0.133333,0.933333 -0.1375,0.2 -0.529166,-0.06667 h -0.200001 l -0.395833,-0.06667 -0.333333,-0.1375 h -0.4 -0.6 -0.4625 l -0.533333,-0.0625 h -0.4 l -0.195834,0.2 -0.266666,0.133333 h -0.200001 l -0.333333,0.133335 -0.2,0.0625 -0.2625,0.1375 -0.266666,-0.07083 h -0.333333 l -0.400001,0.07083 h -0.262499 l -0.4,0.0625 -0.06667,0.2 h -0.395833 l -0.2,0.133332 h -0.266667 l -0.2,0.266668 v 0.329166 l -0.266666,0.333334 -0.133334,0.133332 v 0.133333 l 0.06667,0.2 v 0.133335 l -0.133332,0.133332 -0.2625,-0.06667 -0.6,-0.266667 h -0.33334 l -0.06667,0.200001 -0.06667,0.199999 -0.133334,0.195834 -0.4625,0.1375 -0.466668,0.195833 -1.462504,0.4 -0.266661,0.333333 -0.262501,1.195834 -0.266669,1.395833 -0.199998,0.995834 v 0.399999 h -0.466667 l -0.395835,0.0625 -0.06665,0.270834 v 0.462499 l 0.06665,0.266667 0.133334,0.133334 v 0.199999 l -0.199998,0.200001 -0.266669,0.129166 v 0.2 l 0.06665,0.2 -0.133334,0.133334 v 0.266666 l -0.133335,0.466667 -0.06665,1.125 -0.133334,0.866667 -0.395836,0.729166 -0.133334,0.266667 0.133334,0.133333 h 0.199998 0.329172 l 0.333333,0.06667 0.133334,0.06667 0.266662,0.133333 0.199998,-0.06667 h 0.195837 v 0.129167 l -0.133334,0.270833 -0.262501,0.2625 -0.199998,0.333335 -0.06665,0.266665 0.06665,0.2 0.129166,0.133335 0.466667,-0.07083 0.399996,0.07083 0.195837,-0.133335 v -0.2 l 0.27083,-0.266665 0.33334,-0.133335 0.129159,-0.06667 h 0.400004 l 0.729167,0.2 0.466668,0.133332 0.06665,-0.133332 -0.06665,-0.06667 -0.199999,-0.2 -0.06665,-0.266667 0.06665,-0.2625 0.399997,-0.133334 0.262503,-0.06693 0.6,-0.06667 0.662499,0.266667 0.204167,0.2625 0.06667,0.199999 -0.270835,0.266667 -0.129165,0.133333 -0.06667,0.06667 0.329167,0.133334 0.466666,0.06693 h 0.333334 v -0.13776 l -0.333334,-0.128906 -0.133333,-0.200001 v -0.133333 l 0.333333,-0.4 0.666667,-0.129167 0.329167,-0.07083 0.133333,-0.129169 h -0.133333 l 0.06667,-0.06667 0.333333,-0.06693 h 0.795834 l 1.595833,0.06693 1.395833,0.266666 0.729166,0.2 h 0.466669 l 0.466664,-0.270832 0.333335,-0.0625 0.729165,0.133332 0.4625,0.2625 0.733335,0.06667 0.595832,0.06667 0.533334,0.266667 h 0.333333 l 0.333335,-0.06667 0.0625,-0.133333 -0.195835,-0.2625 -0.199999,-0.2 -0.133334,-0.2 0.06667,-0.06667 v -2.67e-4 l 0.2,-0.266407 0.395833,-0.333333 0.8,-0.266667 0.929167,-0.0625 0.533333,0.133333 h 0.2 l 0.329167,0.195834 0.533333,0.2 0.2,0.06667 h 0.466667 l 0.4625,0.06667 0.2,-0.06667 0.4,-0.06667 v -2.67e-4 -0.266407 -2.66e-4 -0.200001 l -0.270835,-0.199999 -0.2625,0.07083 -0.133332,-0.07083 -0.266668,-0.0625 v -0.133053 h 0.133335 l 0.266665,-0.133333 0.2,-0.06693 h 0.133335 l 0.129165,0.06693 h 0.2 l 0.466668,-0.06693 0.133332,0.06693 0.133074,0.133073 -0.266406,0.0625 h -0.06667 -0.266665 l -0.2,0.133334 v 2.67e-4 0.07057 0.06667 2.66e-4 l 0.06667,0.195834 0.133336,0.133333 0.06667,0.133333 -0.133333,0.133333 v 0.2 h 0.133333 l 0.400001,0.06667 0.395835,0.06667 h 0.199999 0.2 l 0.133333,0.06667 0.333333,0.199999 0.395835,0.0625 h 0.133331 l 0.137501,0.199999 0.2625,0.133334 0.266667,0.133332 h 0.4 0.133332 l 0.195834,-0.133332 0.06667,-0.133334 h 0.266667 l 0.133333,0.06667 0.266666,0.06667 0.266666,0.333334 v 0.199999 l -0.133332,0.266667 0.0625,0.129167 0.07083,0.07083 h 0.329168 0.266666 l 0.266666,-0.2 0.06667,-0.133334 h -0.266667 l -0.06667,-0.07083 -0.133334,-0.129166 0.07083,-0.4 0.129166,-0.133334 0.266667,-0.200001 0.2,-0.2 0.466667,-0.0625 h 0.262498 0.533335 l 0.600001,-0.06667 h 0.2625 l 0.199999,0.129165 0.4,0.2 0.4625,-0.06667 0.266666,0.06667 0.133334,0.07083 0.21224,0.104165 v 5.33e-4 l 0.05417,0.025 h 0.333335 l 0.0625,-0.129166 0.133333,-0.270834 v -0.2625 l 0.333332,-0.266667 h 0.266668 l 0.266667,0.133333 0.133333,-0.06667 0.329166,-0.06667 0.204166,-0.06667 0.329168,0.06667 v 0.133334 0.133334 h 0.133331 0.133336 l 0.466665,-0.266668 0.329168,0.06667 0.2,0.06667 0.133331,0.06667 0.462501,0.200001 0.466668,0.06667 0.266666,0.133593 0.266666,-0.133593 0.2,-0.266407 0.595834,-0.2 0.266667,-0.06693 0.395834,-0.133334 h 0.137499 0.729167 l 0.529167,-0.06667 0.399999,-0.06667 0.266667,-0.129167 0.462501,0.0625 0.204166,0.06667 0.4625,-0.06667 0.266666,-0.195834 h 0.333334 l 0.533332,0.0625 0.658334,0.133334 0.800001,0.4 0.133333,0.133331 0.2,-0.06667 -0.133334,-0.266666 -0.199999,-0.133334 -0.133336,-0.06667 0.200001,-0.2625 v -0.07083 l -0.4,-0.133335 -0.2625,-0.0625 -0.07083,-0.2 -0.2625,-0.133332 -0.2,-0.2 h -0.133333 -0.4 l -0.4,0.266666 -0.529167,0.329166 -0.595833,0.07083 -0.333333,-0.07083 v -0.129165 h 0.333333 l 0.195833,-0.333335 0.200001,-0.4 0.266666,-0.2 0.333333,-0.0625 0.400001,-0.06667 0.129166,0.06667 h 0.6 l 0.06667,-0.06667 0.133333,-0.07083 0.0625,0.07083 v 0.2 l 0.466667,0.0625 0.133333,0.06667 0.06667,0.133334 0.266666,0.200001 0.133333,0.266665 h 0.329167 l 0.133334,0.06667 0.06667,0.266666 v 0.133334 l 0.07083,0.2625 0.0625,0.133333 0.266667,0.266667 -0.06667,0.266666 h -0.333332 l -0.199999,0.06667 0.199999,0.195834 0.07083,0.133334 0.133335,0.199999 0.4625,0.266667 0.195832,0.333333 0.604168,0.333334 0.0625,0.2 0.133332,0.395833 v 0.333333 l -0.333331,0.2625 v 0.2 l -0.0625,0.266667 v 0.266666 0.4 0.200001 l -0.2,0.529166 -0.133334,0.133333 0.133334,0.200001 0.129166,0.133333 -0.220834,0.129167 -0.112499,0.07083 v 0.129166 0.133334 l -0.195832,0.2 h 0.133331 0.2 l 0.395833,0.07083 0.133335,-0.1375 h 0.2 0.200001 0.133331 l 0.266668,0.1375 0.129166,-0.1375 h 0.333334 0.07083 0.195833 l 0.06667,0.1375 0.4,0.195832 0.129167,0.06667 h 0.2 v -0.06667 l 0.133333,-0.133332 0.133333,0.06667 0.06667,0.199999 0.466668,0.266668 0.2625,0.133333 v -0.199999 -0.133334 l 0.270833,0.06667 0.262499,0.06667 h 0.133334 l 0.06667,0.133333 0.06667,0.129167 h 0.133332 l 0.4,-0.0625 h 0.133333 l 0.129167,0.2 v 0.133333 l -0.2625,0.129167 -0.1375,0.133333 -0.2625,0.133334 -0.06667,0.266666 -0.333333,0.133334 v 0.133333 l 0.06667,0.266667 h 0.2 l 0.333331,0.06667 h 0.133334 l 0.2625,0.133331 -0.2625,0.129169 h -0.333333 -0.06667 v 0.133331 l 0.06667,0.200001 v 0.133333 h 0.2625 l 0.1375,0.2 v 0.06667 l -0.200001,0.129166 v 2.67e-4 l 0.0625,0.133075 v 2.66e-4 l 0.07083,0.19974 v 2.67e-4 l 0.2,0.19974 v 2.66e-4 l 0.195834,0.133334 h 0.133333 v 0.133072 h -0.133333 v 2.66e-4 l 0.06667,0.333072 v 2.67e-4 0.19974 2.66e-4 0.133074 2.67e-4 h 0.333333 0.2 l 0.06667,0.128905 -0.133333,0.07083 -0.266667,0.129166 h -0.133333 l -0.06667,0.06667 0.133333,0.2 -0.133333,0.2 v 0.195833 l 0.200001,0.137501 0.06667,0.133333 -0.200001,0.195833 v 0.1375 l 0.06667,0.129167 0.133332,0.200005 0.133333,0.200008 0.06693,0.262493 v 0.137507 0.133334 l 0.06667,0.129159 0.06667,0.06692 0.129167,0.200001 0.204166,0.266666 v 0.2 l 0.2625,0.06668 0.133333,0.06248 0.2,0.133333 0.133333,0.137506 0.200001,0.0625 0.133333,0.07084 0.129167,0.129159 v 0.06666 l -0.0625,0.266666 0.195834,0.06668 -0.0625,0.2 -0.2,0.06666 -0.133333,-0.06666 0.06667,0.06666 0.133334,0.06666 0.133333,0.129174 0.4625,0.133333 h 0.133334 l 0.199999,0.137493 0.195834,0.06251 v 0.133333 0.133333 l 0.137499,0.06666 0.329167,0.133333 0.266667,0.06668 h 0.333333 l 0.06667,-0.2 -0.06667,-0.133334 -0.06667,-0.06668 -0.06667,-0.13332 h 0.133335 0.133331 l 0.266669,0.2 0.2625,0.13332 0.333332,-0.13332 v -0.2 l 0.133333,-0.26252 h 0.06667 l 0.06667,0.129173 0.2,-0.06666 0.133333,0.06666 v 0.133347 l 0.266667,0.13332 0.133333,0.2 0.195834,0.133333 0.06667,-0.133333 0.2,0.06668 0.133333,0.32916 0.2,0.133333 h 0.06667 v -0.195826 -0.4 l 0.06667,-0.329174 -0.133333,-0.466666 -0.06667,-0.200001 -0.06667,-0.199999 0.133333,0.133333 0.133334,0.06692 0.133333,0.06668 v 0.133333 l -0.07083,0.133334 v 0.133333 0.129159 l 0.270834,0.07084 0.0625,0.26224 0.07083,0.2 -0.133331,0.133333 -0.06667,0.06692 v 0.2 l -0.07083,0.133334 -0.133334,0.129172 0.07083,0.200001 0.0625,0.199999 0.2,-0.06693 v -0.133333 l 0.133333,-0.06666 0.2,0.06666 0.06667,0.2 0.200001,0.133334 0.2666663,0.06693 0.066664,-0.333333 0.129167,-0.395839 0.070832,-0.666667 V 96.78281 l 0.1999995,-0.199999 0.2625,-0.200001 0.5291653,-0.266666 h 0.070832 0.1333338 l 0.1291662,-0.2 h 0.2000003 l 0.070832,-0.266667 0.1958334,-0.06668 3.3874994,-0.06251 v 0 l 0.1333338,-3.124745 v -2.67e-4 l -0.062503,-0.39974 0.2624999,-0.06693 h 0.2000003 l 0.2000003,0.06693 v 0.133073 l 0.1999996,0.200001 0.066664,0.266667 v 2.66e-4 l 0.062503,0.195574 0.1374999,0.07083 v -0.13328 -0.199999 l 0.1958334,-0.266669 h 0.1333331 l 0.066664,-0.133331 v -0.06667 -0.06667 h 0.2000003 l 0.133333,0.06667 0.1333338,0.266667 v 0.199999 0.129169 h 0.3333333 0.133333 l 0.066671,-0.129169 0.4625003,-0.199999 0.1999996,-0.06667 h 0.1333337 l 0.32916646,0.195833 0.27083336,0.07083 0.19583331,0.129167 0.26666666,-0.129167 0.32916665,-0.07083 L 0.6586313,92.32866 0.92113127,92.26199 H 1.254425 l 0.4,0.06667 h 0.4625 l 0.6,0.06667 h 0.4624999 l 0.4666667,0.0625 0.2666667,0.2 0.3999999,0.333332 0.4,0.333332 0.3291667,0.200007 h 0.5999999 0.9291667 0.6 L 7.9002574,93.3245 8.1669241,93.25783 v -0.195834 l 0.1291666,-0.270832 0.1375,-0.333333 0.2625,-0.2625 0.2666667,-0.06667 0.3333333,-0.133332 0.1999999,-0.06667 0.2666667,-0.06667 H 9.891924 l 0.133333,-0.133333 0.400002,-0.200001 0.266666,-0.0625 h 0.2625 l 0.2,0.0625 v -2.66e-4 l 0.06667,-0.195574 0.333334,-0.270833 h 0.2 l 0.395834,-0.0625 0.6,-0.133333 0.133332,0.06667 0.133333,0.199999 -0.2,0.200001 v 0.195833 0.266666 l -0.06667,0.2 0.266666,0.333334 0.266666,0.2 0.2,0.06667 0.395834,0.133334 h 0.466667 l 0.595833,-0.133334 0.666667,-0.266666 h 0.199999 v -0.2 h -0.133331 l -0.06667,-0.133333 v -0.200002 l 0.4625,-0.2 0.266667,-0.2625 h 0.266666 l 0.06667,0.0625 h 0.266668 l 0.133332,0.133333 0.133333,0.06667 v -0.395831 l 0.2,-0.1375 h 0.2625 l 0.133335,-0.195835 v -0.06667 l 0.2,-0.133336 -0.333335,-0.133331 -0.2625,-0.133334 H 16.93776 l -0.133334,-0.266666 0.133334,-0.195834 v -0.333334 l -0.266668,-0.133333 0.06667,-0.266667 -0.06667,-0.133333 -0.133332,-0.2625 0.266666,-0.266667 0.266666,-0.133332 0.529168,-0.266669 v -0.06667 l -0.0625,-0.2 -0.333335,-0.333335 V 87.211985 L 16.871092,86.611984 16.33776,85.882817 16.141925,85.216151 15.808592,84.686985 v -0.466668 -0.400001 l -0.333332,-0.462499 -0.06667,-0.333332 -0.466667,-0.400001 -0.329167,-0.2625 -0.333333,-0.333333 v -0.466667 l -0.266665,-0.2 -0.133333,-0.333333 -0.266666,-0.329167 v -0.333333 -0.4625 -0.933334 -0.729165 l -0.06667,-0.400001 -0.2625,-0.333334 h -0.133333 l -0.4,0.266668 h -0.133333 l -0.466667,0.2 -0.4625,-0.06693 -0.466667,0.133335 -0.329166,0.06693 -0.466667,-0.133333 -0.4,-0.06693 L 9.6919187,77.578391 9.562752,77.045318 9.4960853,76.711985 9.0960854,76.378652 8.762752,76.111985 8.4960854,75.578652 8.1002521,75.182818 8.033584,74.716152 l 0.1333333,-0.2625 v -0.266667 -0.4 l 0.2,-0.395833 0.2625001,-0.466667 0.1999999,-0.533333 v -0.2625 L 8.6960907,71.795337 v -0.333335 l 0.1333333,-0.133331 0.070833,-0.2625 0.0625,-0.270834 -0.1333334,-0.2625 v -0.333335 l -0.066926,-0.06667 v -2.67e-4 L 8.8999977,69.86584 v -2.66e-4 -0.466408 -2.68e-4 -0.195574 -2.66e-4 l -0.3333334,-0.333333 -0.6666666,-0.2 h -0.6666666 -1.125 l -0.6,-0.06667 -0.4666666,-0.133335 -0.2666667,-0.333332 -0.2,-0.195833 -0.3958333,-0.266667 -0.3333334,-0.133333 -0.4666666,-0.2 -0.3291667,-0.06667 -0.3333333,-0.2 -0.2,-0.395832 -0.066667,-0.133335 V 66.27805 L 2.583331,66.011382 V 65.61555 l 0.066666,-0.666666 0.066926,-0.595834 0.2666667,-0.466666 0.066667,-0.466666 0.066668,-0.462501 0.1333333,-0.266666 0.3958333,-0.266667 0.4666667,-0.529166 0.2,-0.266667 0.4,-0.266667 0.3291667,-0.133333 0.5999999,-0.666667 0.5291667,-0.595833 0.2666666,-0.529167 0.1333334,-0.204165 0.4666666,-0.4625 0.3958333,-0.466668 0.1333333,-0.333332 0.066667,-0.529168 0.2666666,-0.533332 0.2,-0.729168 0.1958333,-0.266667 0.1375001,-0.133333 0.3291666,-0.133332 0.1875,-0.25 0.012493,-0.01249 0.5333333,-0.404167 0.6625006,-0.791667 0.4,-0.2 0.395833,-0.07083 0.404167,-0.129168 h 0.129165 l 0.466668,0.129168 0.395832,0.270832 0.4,0.395833 0.2,0.133335 0.133073,0.132812 v 2.66e-4 0.128907 l 0.06667,0.1375 v 0.466668 0.195834 l 0.2,0.333331 2.67e-4,5.34e-4 0.333073,0.461977 2.67e-4,5.34e-4 0.262239,0.266144 2.67e-4,5.34e-4 0.2,0.1375 0.133335,0.129168 h 0.466665 0.6625 l 0.533334,-0.2 1.195834,-0.729168 1.0625,-0.466665 0.929167,-0.2 0.929165,-0.129167 0.866668,0.0625 0.929166,-0.0625 2.125001,-0.866668 0.333333,-0.266665 0.133333,-0.2625 0.133334,-0.733335 v -0.533333 l 0.199999,-0.395832 0.395834,-0.533335 0.466665,-0.395833 0.733335,-0.733332 0.529165,-0.529168 0.266668,-0.4 0.266667,-1.395832 0.266665,-1.329168 0.06667,-0.266665 0.729167,-0.8625 0.529166,-0.2 0.466668,-0.06667 0.199999,-0.333332 0.595833,-0.333335 3.458334,-1.991666 0.133334,-0.729167 0.129166,-0.4 0.333333,-0.4 0.466667,-0.395833 0.2,-0.533333 1.304167,-2.816667 0.987499,-3.95 0.09167,-0.183333 1.8375,-0.85 1.408333,-0.466667 0.325,-0.141667 0.333333,-0.329166 0.795835,-0.75 0.09583,-0.283333 -0.141667,-0.658334 -0.141667,-0.329166 -0.233333,-0.283334 -0.329167,-0.141666 -0.1875,-0.04583 -0.09557,-0.04583 0.141404,-0.18724 v -2.66e-4 l 0.04583,-0.09557 v -0.1375 l 0.191667,-0.09583 0.04583,-0.141667 0.09167,0.04583 h 0.141668 l 0.1875,-0.09167 v -2.67e-4 l 0.141665,-0.141408 v -2.66e-4 l 0.09167,-0.18724 v -2.67e-4 l 0.141666,-0.141408 v -2.67e-4 l 0.09583,-0.23724 0.1875,-0.1375 0.1875,-0.141665 v -2.66e-4 -0.09167 -0.191667 l 0.05,-0.329167 v -0.141667 l 0.1875,-0.1875 0.09167,-0.279166 0.141665,-0.09557 0.141668,-0.04583 0.233333,-0.141666 0.09583,-0.141666 0.1875,-0.1875 v -0.2375 h 0.141665 v -0.0875 l 0.183335,-0.191668 0.05,-0.141666 0.141665,-0.1875 0.141669,-0.09167 v -2.66e-4 -0.141407 -2.67e-4 l -0.05,-0.191408 v -2.66e-4 -0.09167 l 0.2375,-0.09557 0.1875,-0.09193 v -0.329168 -0.1875 l 0.2375,-0.1875 0.1375,-0.05 0.09167,0.05 0.191667,0.04583 0.09167,0.04583 0.09583,-0.09167 0.04583,-0.191668 0.141666,-0.229166 0.09583,-0.09583 h 0.279166 0.191667 l 0.183333,-0.141666 0.2375,-0.09167 0.09167,-0.474999 v -0.187501 l 0.283334,-0.141666 h 0.09583 0.233334 l 0.1875,-0.325 0.187499,-0.2375 -0.04583,-0.141666 -0.279168,-0.09167 -0.141666,-0.04583 -0.191666,0.04583 -0.1375,0.09167 -0.283335,-0.1375 -0.2375,-0.09583 v -0.1875 -0.279165 -0.141668 l 0.09583,-0.141667 0.04583,-0.237499 -0.04583,-0.283334 -0.04583,-0.141666 0.04583,-0.370834 0.1875,-0.1875 v -0.237501 -0.141665 l 0.09583,-0.141667 0.04583,-0.183333 0.187499,-0.283334 0.09583,-0.283332 0.04583,-0.2375 -0.09583,-0.187501 -0.04583,-0.183333 -0.141667,-0.191666 -0.187499,-0.09167 0.09583,-0.283333 -0.141668,-0.283332 v -0.279168 l -0.2375,-0.141667 v -0.1875 l -0.09167,-0.141666 -0.05,-0.09583 -0.09193,-0.1875 -0.141667,-0.04583 -0.09167,-0.187499 v -0.141668 l 0.04583,-0.1375 0.09583,-0.09583 0.09167,-0.141666 v -0.09557 -2.67e-4 l -0.04583,-0.09167 v -0.09557 -2.66e-4 l 0.09583,-0.187241 v -2.66e-4 l 0.279167,-0.328907 0.612499,-0.470833 v -2.66e-4 l 0.325,-0.470574 0.141667,-0.09193 h 0.04583 l 0.09583,0.04583 h 0.329167 l 0.2375,-0.04583 0.09167,-0.1375 v -0.09557 -2.67e-4 -0.283073 -2.67e-4 -0.141406 -2.67e-4 l 0.141667,-0.141407 h 0.09167 0.187501 0.191666 l 0.09167,-0.04583 v -0.09583 h 0.187488 l 0.283332,-0.04583 0.279168,-0.09583 0.141666,-0.187501 0.191666,-0.04167 v -0.141665 l 0.09167,-0.1875 0.1875,-0.05 h 0.2375 l 0.1875,0.141666 0.09193,0.09583 h 0.141669 l 0.04557,-0.141668 0.09583,-0.09583 h 0.09167 l 0.191666,0.05 0.09167,-0.05 h 2.66e-4 v -0.141667 -0.141668 l 0.09557,-0.09167 0.233334,-0.09583 0.233332,-0.141665 0.408334,-0.07083 0.266667,-0.0625 0.06693,-0.466665 0.129166,-0.2666661 0.199999,-0.2666668 V 8.6657657 L 53.221095,8.3990989 52.754429,8.0699324 h -2.68e-4 L 52.487756,7.9324326 52.091922,7.86993 h -2.67e-4 L 51.758582,7.6657636 51.162747,7.603261 50.891915,7.2032604 h -2.67e-4 l -0.395571,-0.1999996 -0.266929,-0.066664 -0.399999,0.3999999 -0.395573,0.1291662 -0.199999,-0.2625 -0.4,-0.1999996 -0.400001,0.1999996 -0.329428,0.1333338 h -0.333072 l -0.329168,-0.1999999 -0.270832,-0.3999999 -0.0625,-0.395833 v -0.066664 l 0.2625,-0.4666664 0.07057,-0.2666668 L 47.17081,5.2074338 V 4.8116008 L 47.108307,4.5449339 47.241641,4.2116006 47.44164,3.8157676 47.304141,3.6824338 47.037475,4.0157672 46.908308,4.1449341 46.44164,4.3449344 h -0.395833 -0.270832 l -0.2625,-0.2666668 -0.333335,-0.062503 -0.266665,0.1958334 -0.333334,0.066664 -0.2,-0.133333 -0.183333,-0.3124999 -0.0125,-0.016666 0.133334,-0.3333333 0.133332,-0.2000003 -0.07057,-0.1999996 -0.195833,-0.2000003 V 2.7490967 L 44.316907,2.5490964 H 44.31664 L 44.183568,2.4199295 43.9169,2.2865964 h -2.67e-4 l -0.39974,-0.3999998 h -2.66e-4 l -0.39974,-0.1333338 h -2.67e-4 l -0.133072,-0.133333 -0.329168,-0.062503 -0.2,-0.2708337 -0.2,-0.33333335 h -2.67e-4 L 41.991874,0.7574267 41.525206,0.2240938 41.325205,-0.17173994 v -0.0666636 -0.39999986 l 0.06667,-0.26666681 0.266667,-0.13333299 0.4625,-0.1958335 0.133333,-0.1374999 0.133334,-0.3958337 V -2.1009037 -2.434237 l -0.133334,-0.2625 0.200001,-0.1999995 v -0.3333334 -0.2666668 l -0.266667,-0.4666671 -0.195834,-0.062503 -0.333333,-0.133333 -0.266667,-0.1333338 -0.199999,-0.066926 -0.2625,-0.2000003 -0.1375,-0.1997397 v -2.664e-4 l -0.133338,-0.266407 v -2.664e-4 l 0.07083,-0.3333333 0.129166,-0.4622404 v -2.665e-4 l 0.238022,-0.3330734 0.09505,-0.1333331 2.66e-4,-2.672e-4 0.39974,-0.1330731 2.67e-4,-2.665e-4 0.129167,-0.1997404 h 0.333073 l 2.67e-4,-2.664e-4 0.533333,-0.1955729 v -2.672e-4 l 0.333334,-0.3997399 v -2.665e-4 l 0.266666,-0.2664069 v -2.665e-4 -0.2622401 -2.664e-4 l 0.125,-0.1289071 0.0039,-0.00416 2.66e-4,-2.671e-4 0.133334,-0.2666661 -0.595833,-0.2666668 -0.333334,0.066926 -0.466667,-0.066926 h -0.333333 v 2.664e-4 l -0.0625,0.1997404 H 41.19194 41.058606 l -0.533332,-0.066664 -0.129168,-0.133333 -0.333332,-0.4666664 -0.2,-0.2000003 v -0.3291665 l 0.06667,-0.3999998 0.333334,-0.066664 0.333333,-0.06667 0.133333,-0.1291666 0.0625,-0.466666 -0.133333,-0.6 -0.462501,-0.462501 -0.133331,-0.06667 -0.4,-0.266668 -0.2,-0.06667 h -0.329168 l -0.266667,-0.266667 0.266667,-0.133333 0.2,-0.2 0.329168,-0.06667 v -0.395833 l -0.2,-0.2 0.133332,-0.333334 0.4,-0.199999 0.133333,-0.2 0.133334,-0.395833 -0.266667,-0.1375 v -0.2625 l 0.529167,-0.266667 0.733333,-0.133334 0.662501,-0.266666 0.666667,-0.4625 0.395833,-0.200001 0.533332,-0.266666 h 0.4 l 0.266668,0.133333 0.529166,0.266667 0.866666,0.2 0.662499,0.133334 0.333335,0.133333 0.133334,0.129167 0.2,0.07083 0.333331,-0.137499 h 0.329168 l 0.862501,0.137499 0.2,0.0625 0.4,0.2 0.4625,0.06667 0.133332,0.06667 0.333334,-0.06667 0.333334,-0.266666 0.333332,-0.0625 h 0.395834 0.266665 l 0.200001,0.0625 0.133334,0.266666 0.199999,0.133334 0.533334,0.266666 0.200001,0.133334 0.329165,0.133333 h 0.533335 0.6625 l 0.995833,0.06667 0.333332,-0.06667 0.395835,0.06667 0.199999,-0.06667 0.204166,-0.266667 0.395835,-0.266666 0.333333,-0.266667 0.2625,-0.333333 0.199999,-0.195833 0.333333,-0.333334 0.4,-0.133333 h 0.533334 0.262507 0.333333 l 0.333333,-0.06667 0.395828,-0.133334 v -2.67e-4 l 0.137506,-0.199738 0.595827,-0.395834 0.333333,-0.07083 h 0.39584 l 0.333333,0.07083 0.4,0.0625 0.400001,-0.0625 0.462492,-0.133333 0.333334,-0.2 0.133334,-0.199999 0.195839,-0.400001 0.4,-0.2625 0.06668,-0.333333 v -2.67e-4 l -0.329173,-0.2 v -0.395572 l 0.19584,-0.133333 0.399999,-0.1375 0.600001,-0.2625 h 0.462493 0.266666 l 0.333334,-0.2 0.133333,-0.6 -0.133333,-0.395833 v -2.67e-4 -0.333072 l 0.2,-0.06667 4.516666,-3.391669 0.795573,-0.329166 v 0 -2.66e-4 l -0.262506,-0.06667 h -0.46668 l -0.266667,-0.06667 -0.399999,-0.06667 -0.395828,-0.06667 -0.466666,0.06667 -0.333333,0.2 -0.329173,-0.133334 -0.466667,-0.266666 -0.466667,-0.2 -0.333333,0.06667 -0.52916,0.06667 -0.262507,-0.133334 -0.4,-0.195833 -0.266667,-0.2 h -0.466666 l -0.533334,-0.07083 -0.395826,-0.262501 -0.4,-0.266666 -0.266667,-0.06667 -0.262506,0.133333 -0.466667,-0.399999 -0.4,-0.2625 -0.595827,-0.333334 -0.333333,0.06667 -0.133333,-0.133073 v -2.66e-4 -0.19974 -2.67e-4 l -0.133334,-0.199739 v -2.67e-4 l -0.2,-0.19974 v -2.67e-4 l 0.137494,-0.333073 v -2.66e-4 l 0.0625,-0.395834 h -0.199999 l -0.329174,0.266667 -0.2,0.06693 -0.266666,0.0625 -0.06666,0.07057 v 2.66e-4 l -0.2,0.262239 -0.195827,-0.06667 h -0.2 l -0.266667,0.06667 v 2.67e-4 l -0.06666,0.266406 -0.266667,-0.06667 -0.4,-0.06667 -0.262506,0.06667 h -0.20416 v 0 l -0.262248,-0.129167 -0.266667,-0.333333 v -0.333334 l -0.133333,-0.666666 -0.200001,-0.2625 h -2.66e-4 l -0.39974,-0.133334 h -2.67e-4 -0.328908 -0.333332 -2.67e-4 l -0.39974,-0.133333 -0.2625,-0.466667 v -0.333333 l 0.129169,-0.266667 0.204165,-0.133333 0.2625,-0.129167 0.06667,-0.2 v -0.2 l -0.06667,-0.266666 0.133334,-0.133334 0.333072,-0.0625 h 2.67e-4 v -0.2 h -2.67e-4 l -0.333072,-0.133333 -0.195834,-0.533333 v -0.266667 -0.133333 -0.795834 l -0.1375,-0.333333 -0.133334,-0.395833 -0.333331,-0.466667 -0.2625,-0.4 -0.06693,-0.266666 -0.333333,-0.395834 -0.733334,-0.533333 -0.729166,-0.266667 h -0.4625 l -0.533334,-0.06667 h -0.329166 l -0.133333,0.2 0.133333,0.133333 h -0.404185 l -0.329166,0.06667 -0.333335,-0.4 v -0.333326 -0.329166 -0.600002 l -0.462499,-0.329164 -0.333332,-0.137503 -0.533334,-0.06249 h -0.466666 l -0.395834,-0.266669 -0.4,-0.06665 h -0.529167 l -0.4,0.133335 -0.6,0.133334 -0.195833,0.333333 h -0.1375 l -0.2625,-0.600002 -0.133334,-0.199998 -0.333332,-0.06665 h -0.529177 l -0.333332,-0.129166 -0.06667,-0.07081 h -0.2 z" />
</svg>
