<svg width="37" height="37" viewBox="0 0 37 37" fill="none" xmlns="http://www.w3.org/2000/svg">
<path d="M18.5 17.76C17.39 17.76 16.65 18.5 16.65 19.61C16.65 20.35 17.205 20.905 17.76 21.09L17.205 23.68H19.61L19.055 21.09C19.795 20.905 20.165 20.35 20.165 19.61C20.35 18.5 19.61 17.76 18.5 17.76ZM18.685 9.80495C17.39 9.80495 16.095 10.73 16.095 12.025V14.8H21.09V12.025C20.905 10.73 19.98 9.80495 18.685 9.80495ZM18.5 3.69995L5.55 9.24995V14.8C5.735 22.94 10.915 30.155 18.5 33.115C26.085 30.155 31.265 22.94 31.45 14.8V9.24995L18.5 3.69995ZM25.9 24.05C25.9 25.16 25.16 25.9 24.05 25.9H12.95C11.84 25.9 11.1 25.16 11.1 24.05V16.65C11.1 15.54 11.84 14.8 12.95 14.8H13.505V12.025C13.69 9.43495 15.91 7.39995 18.5 7.39995C21.09 7.39995 23.31 9.43495 23.495 12.025V14.8H24.05C25.16 14.8 25.9 15.54 25.9 16.65V24.05Z" fill="black"/>
</svg>
