<svg width="37" height="37" viewBox="0 0 37 37" fill="none" xmlns="http://www.w3.org/2000/svg">
<path d="M16.1104 23.8959C16.7271 24.5126 17.5236 24.8147 18.5 24.8024C19.4764 24.7901 20.1958 24.4365 20.6583 23.7417L29.2917 10.7917L16.3417 19.4251C15.6479 19.8876 15.282 20.5942 15.244 21.5449C15.206 22.4956 15.4948 23.2792 16.1104 23.8959ZM18.5 6.16675C20.016 6.16675 21.4744 6.37847 22.8753 6.80191C24.2761 7.22536 25.5927 7.86155 26.825 8.7105L23.8958 10.5605C23.0479 10.1237 22.1681 9.79634 21.2565 9.57846C20.3449 9.36057 19.426 9.25111 18.5 9.25008C15.0826 9.25008 12.1725 10.4516 9.76955 12.8545C7.36661 15.2574 6.16565 18.1671 6.16668 21.5834C6.16668 22.6626 6.31468 23.7289 6.61068 24.7824C6.90668 25.8358 7.32395 26.8251 7.86251 27.7501H29.1375C29.7285 26.7737 30.1591 25.7588 30.4294 24.7053C30.6997 23.6518 30.8344 22.5598 30.8333 21.4292C30.8333 20.5042 30.7239 19.6049 30.505 18.7313C30.2861 17.8577 29.9587 17.0098 29.5229 16.1876L31.3729 13.2584C32.1438 14.4661 32.7543 15.7508 33.2044 17.1126C33.6546 18.4744 33.892 19.8876 33.9167 21.3522C33.9424 22.8167 33.7754 24.2171 33.4156 25.5532C33.0559 26.8893 32.5292 28.1612 31.8354 29.3688C31.5528 29.8313 31.1674 30.1911 30.6792 30.448C30.191 30.7049 29.6771 30.8334 29.1375 30.8334H7.86251C7.32293 30.8334 6.80904 30.7049 6.32084 30.448C5.83265 30.1911 5.44723 29.8313 5.16459 29.3688C4.49654 28.2126 3.98265 26.9859 3.62293 25.6889C3.2632 24.3918 3.08334 23.0233 3.08334 21.5834C3.08334 19.4508 3.48829 17.4533 4.29818 15.591C5.10807 13.7286 6.21293 12.097 7.61276 10.6962C9.01259 9.2953 10.6498 8.19044 12.5245 7.38158C14.3992 6.57272 16.391 6.16778 18.5 6.16675Z" fill="black"/>
</svg>
