<svg width="37" height="37" viewBox="0 0 37 37" fill="none" xmlns="http://www.w3.org/2000/svg">
<path d="M20.0417 3.16034V6.2745C26.1313 7.02992 30.8333 12.2099 30.8333 18.4999C30.8333 23.4487 27.8733 27.7499 23.5567 29.7233L20.0417 26.2083V33.9166H27.75L25.8692 32.0358C30.6946 29.3995 33.9167 24.2966 33.9167 18.4999C33.9167 10.5141 27.8271 3.93117 20.0417 3.16034ZM16.9583 3.08325C13.9521 3.39159 11.1 4.56325 8.75668 6.49034L10.9458 8.6795C12.6958 7.33051 14.7689 6.46405 16.9583 6.16659V3.08325ZM6.47501 8.75659C4.56334 11.0999 3.39168 13.952 3.08334 16.9583H6.16668C6.45959 14.7691 7.32293 12.6878 8.67959 10.9458L6.47501 8.75659ZM9.25001 12.3333V15.4166H13.875V16.9583H12.3333C10.6375 16.9583 9.25001 18.3458 9.25001 20.0416V24.6666H16.9583V21.5833H12.3333V20.0416H13.875C15.5863 20.0416 16.9583 18.6695 16.9583 16.9583V15.4166C16.9583 14.5988 16.6335 13.8146 16.0553 13.2363C15.477 12.6581 14.6928 12.3333 13.875 12.3333H9.25001ZM18.5 12.3333V20.0416H23.125V24.6666H26.2083V20.0416H27.75V16.9583H26.2083V12.3333H23.125V16.9583H21.5833V12.3333H18.5ZM3.08334 20.0416C3.39168 23.0478 4.57876 25.8999 6.50584 28.2433L8.69501 26.0541C7.34144 24.3052 6.46972 22.2322 6.16668 20.0416H3.08334ZM10.9613 28.3203L8.75668 30.5095C11.0991 32.422 13.9503 33.6064 16.9583 33.9166V30.8333C14.7718 30.5426 12.7019 29.6752 10.9613 28.3203Z" fill="black"/>
</svg>
