<svg width="37" height="37" viewBox="0 0 37 37" fill="none" xmlns="http://www.w3.org/2000/svg">
<path d="M25.2217 21.5833C25.345 20.5658 25.4375 19.5483 25.4375 18.4999C25.4375 17.4516 25.345 16.4341 25.2217 15.4166H30.4325C30.6792 16.4033 30.8333 17.4362 30.8333 18.4999C30.8333 19.5637 30.6792 20.5966 30.4325 21.5833M22.4929 30.1549C23.4179 28.4437 24.1271 26.5937 24.6204 24.6666H29.1683C27.6747 27.2385 25.3051 29.1867 22.4929 30.1549ZM22.1075 21.5833H14.8925C14.7383 20.5658 14.6458 19.5483 14.6458 18.4999C14.6458 17.4516 14.7383 16.4187 14.8925 15.4166H22.1075C22.2463 16.4187 22.3542 17.4516 22.3542 18.4999C22.3542 19.5483 22.2463 20.5658 22.1075 21.5833ZM18.5 30.7716C17.2204 28.9216 16.1875 26.8712 15.5554 24.6666H21.4446C20.8125 26.8712 19.7796 28.9216 18.5 30.7716ZM12.3333 12.3333H7.83168C9.30991 9.75437 11.6778 7.80304 14.4917 6.84492C13.5667 8.55617 12.8729 10.4062 12.3333 12.3333ZM7.83168 24.6666H12.3333C12.8729 26.5937 13.5667 28.4437 14.4917 30.1549C11.6837 29.1862 9.31915 27.2377 7.83168 24.6666ZM6.56751 21.5833C6.32084 20.5966 6.16668 19.5637 6.16668 18.4999C6.16668 17.4362 6.32084 16.4033 6.56751 15.4166H11.7783C11.655 16.4341 11.5625 17.4516 11.5625 18.4999C11.5625 19.5483 11.655 20.5658 11.7783 21.5833M18.5 6.21284C19.7796 8.06284 20.8125 10.1287 21.4446 12.3333H15.5554C16.1875 10.1287 17.2204 8.06284 18.5 6.21284ZM29.1683 12.3333H24.6204C24.1379 10.4238 23.4234 8.58068 22.4929 6.84492C25.3296 7.81617 27.6883 9.77409 29.1683 12.3333ZM18.5 3.08325C9.97459 3.08325 3.08334 10.0208 3.08334 18.4999C3.08334 22.5887 4.70759 26.51 7.59878 29.4011C9.03035 30.8327 10.7299 31.9683 12.6003 32.7431C14.4707 33.5178 16.4755 33.9166 18.5 33.9166C22.5888 33.9166 26.5101 32.2923 29.4012 29.4011C32.2924 26.51 33.9167 22.5887 33.9167 18.4999C33.9167 16.4754 33.5179 14.4707 32.7432 12.6002C31.9684 10.7298 30.8328 9.03026 29.4012 7.59869C27.9697 6.16712 26.2702 5.03154 24.3997 4.25678C22.5293 3.48202 20.5246 3.08325 18.5 3.08325Z" fill="black"/>
</svg>
