<svg width="32" height="32" viewBox="0 0 32 32" fill="none" xmlns="http://www.w3.org/2000/svg">
<path d="M21.066 20.6671C22.293 19.9851 22.134 17.3571 20.712 14.7931C20.102 13.6891 19.352 12.7951 18.602 12.1701C17.7052 12.8357 16.6188 13.1966 15.502 13.2001C14.3835 13.1976 13.2952 12.8366 12.397 12.1701C11.647 12.7951 10.899 13.6901 10.287 14.7931C8.86399 17.3561 8.70699 19.9851 9.93699 20.6671C10.485 20.9791 11.063 20.7451 11.659 20.1711C11.5474 20.7895 11.4915 21.4167 11.492 22.0451C11.492 24.9831 12.632 27.3571 14.035 27.3571C14.881 27.3571 15.3 26.4921 15.501 25.1691C15.701 26.4831 16.121 27.3571 16.961 27.3571C18.358 27.3571 19.507 24.9821 19.507 22.0451C19.507 21.3851 19.445 20.7551 19.339 20.1721C19.939 20.7471 20.515 20.9851 21.065 20.6691L21.066 20.6671ZM15.5 12.2001C16.0674 12.2086 16.6307 12.1041 17.1574 11.8928C17.684 11.6815 18.1633 11.3676 18.5674 10.9693C18.9716 10.571 19.2925 10.0963 19.5115 9.57279C19.7304 9.04931 19.8431 8.48751 19.8429 7.92008C19.8427 7.35265 19.7296 6.79093 19.5103 6.2676C19.291 5.74427 18.9697 5.2698 18.5653 4.87178C18.1609 4.47377 17.6813 4.16017 17.1546 3.94923C16.6278 3.73829 16.0643 3.63423 15.497 3.6431C14.3736 3.66067 13.3022 4.11936 12.5141 4.92015C11.726 5.72093 11.2845 6.79954 11.2849 7.92308C11.2853 9.04661 11.7275 10.1249 12.5162 10.9251C13.3048 11.7254 14.3766 12.1833 15.5 12.2001ZM24.094 14.9141C25.0078 14.8874 25.8752 14.5056 26.5121 13.8498C27.149 13.194 27.5053 12.3158 27.5053 11.4016C27.5053 10.4874 27.149 9.6092 26.5121 8.95339C25.8752 8.29759 25.0078 7.91581 24.094 7.8891C23.1621 7.88923 22.2685 8.25953 21.6097 8.91854C20.9509 9.57754 20.5809 10.4713 20.581 11.4031C20.5811 12.3349 20.9514 13.2286 21.6104 13.8874C22.2694 14.5462 23.1631 14.9162 24.095 14.9161L24.094 14.9141ZM28.374 17.0441C27.872 16.1361 27.258 15.4021 26.642 14.8891C25.9051 15.4351 25.013 15.7311 24.096 15.7341C23.34 15.7341 22.636 15.5271 22.02 15.1841C22.516 16.2771 22.823 17.3841 22.88 18.3741C22.974 19.8901 22.5 21.0141 21.552 21.5391C21.3488 21.6507 21.1279 21.7265 20.899 21.7631C20.842 22.1551 20.803 22.5631 20.803 22.9931C20.803 25.4061 21.738 27.3551 22.891 27.3551C23.585 27.3551 23.931 26.6451 24.095 25.5591C24.258 26.6391 24.603 27.3551 25.295 27.3551C26.44 27.3551 27.385 25.4051 27.385 22.9951C27.385 22.4521 27.332 21.9351 27.245 21.4551C27.737 21.9281 28.211 22.1231 28.663 21.8631C29.67 21.3031 29.54 19.1451 28.373 17.0431L28.374 17.0441ZM6.90599 14.9141C7.60051 14.9137 8.27932 14.7074 8.8566 14.3212C9.43388 13.9351 9.88372 13.3865 10.1492 12.7447C10.4147 12.1029 10.484 11.3968 10.3483 10.7157C10.2125 10.0346 9.87788 9.409 9.38664 8.91804C8.8954 8.42707 8.26961 8.09279 7.58841 7.95744C6.9072 7.82209 6.20116 7.89175 5.55954 8.15763C4.91792 8.4235 4.36954 8.87364 3.98373 9.45115C3.59791 10.0286 3.39199 10.7076 3.39199 11.4021C3.39225 12.334 3.76256 13.2276 4.4215 13.8866C5.08045 14.5455 5.9741 14.9158 6.90599 14.9161V14.9141ZM9.44099 21.5361C7.84899 20.6511 7.70298 18.0121 8.98498 15.1821C8.35131 15.5419 7.63565 15.7323 6.90699 15.7351C5.95099 15.7351 5.07499 15.4151 4.35699 14.8891C3.74199 15.4011 3.12899 16.1351 2.62499 17.0421C1.45799 19.1461 1.32999 21.3041 2.33799 21.8621C2.78799 22.1201 3.26299 21.9271 3.75199 21.4561C3.66217 21.9638 3.61699 22.4785 3.61699 22.9941C3.61699 25.4061 4.55199 27.3541 5.70499 27.3541C6.39898 27.3541 6.74499 26.6441 6.90899 25.5591C7.07399 26.6391 7.41899 27.3551 8.10899 27.3551C9.25599 27.3551 10.199 25.4051 10.199 22.9951C10.199 22.5621 10.159 22.1531 10.102 21.7611C9.87054 21.7246 9.64721 21.6481 9.44199 21.5351L9.44099 21.5361Z" fill="black"/>
</svg>
