<svg width="34" height="33" viewBox="0 0 34 33" fill="none" xmlns="http://www.w3.org/2000/svg">
<path d="M15.5 6.40625C15.5 7.93953 14.8909 9.41002 13.8067 10.4942C12.7225 11.5784 11.252 12.1875 9.71875 12.1875C8.18547 12.1875 6.71498 11.5784 5.63079 10.4942C4.54659 9.41002 3.9375 7.93953 3.9375 6.40625C3.9375 4.87297 4.54659 3.40248 5.63079 2.31829C6.71498 1.23409 8.18547 0.625 9.71875 0.625C11.252 0.625 12.7225 1.23409 13.8067 2.31829C14.8909 3.40248 15.5 4.87297 15.5 6.40625ZM23.5938 9.875C22.358 9.87408 21.1287 10.0533 19.9446 10.4069C19.4122 9.72366 19.0823 8.90465 18.9925 8.04312C18.9027 7.18159 19.0567 6.31216 19.4369 5.53386C19.8171 4.75556 20.4082 4.09966 21.1429 3.64086C21.8776 3.18207 22.7264 2.93882 23.5926 2.93882C24.4588 2.93882 25.3076 3.18207 26.0423 3.64086C26.777 4.09966 27.3681 4.75556 27.7483 5.53386C28.1285 6.31216 28.2825 7.18159 28.1927 8.04312C28.1029 8.90465 27.773 9.72366 27.2406 10.4069C26.0572 10.0535 24.8287 9.8743 23.5938 9.875ZM3.9375 14.5H13.7818C11.8987 16.7764 10.8705 19.6394 10.875 22.5938C10.875 23.3661 10.9444 24.12 11.0762 24.8531C10.6246 24.889 10.1718 24.9068 9.71875 24.9062C0.46875 24.9062 0.46875 18.1422 0.46875 18.1422V17.9688C0.46875 17.0488 0.834207 16.1665 1.48472 15.516C2.13524 14.8655 3.01753 14.5 3.9375 14.5ZM34 22.5938C34 25.3537 32.9036 28.0005 30.9521 29.9521C29.0005 31.9036 26.3537 33 23.5938 33C20.8338 33 18.187 31.9036 16.2354 29.9521C14.2839 28.0005 13.1875 25.3537 13.1875 22.5938C13.1875 19.8338 14.2839 17.187 16.2354 15.2354C18.187 13.2839 20.8338 12.1875 23.5938 12.1875C26.3537 12.1875 29.0005 13.2839 30.9521 15.2354C32.9036 17.187 34 19.8338 34 22.5938ZM24.6945 16.4887C24.6277 16.2481 24.4839 16.036 24.2851 15.8849C24.0863 15.7338 23.8435 15.6519 23.5938 15.6519C23.344 15.6519 23.1012 15.7338 22.9024 15.8849C22.7036 16.036 22.5598 16.2481 22.493 16.4887L21.3899 20.0315H17.8125C16.6933 20.0315 16.2261 21.5277 17.1326 22.2145L20.0233 24.4044L18.9202 27.9472C18.5733 29.0572 19.7943 29.9822 20.7008 29.2954L23.5914 27.1054L26.4821 29.2954C27.3886 29.9822 28.6096 29.0572 28.2627 27.9472L27.1596 24.4044L30.0502 22.2145C30.9567 21.5277 30.4896 20.0315 29.3704 20.0315H25.7952L24.6945 16.4887Z" fill="black"/>
</svg>
